<?xml version="1.0" encoding="UTF-8" standalone="no"?>
<!-- Created with Inkscape (http://www.inkscape.org/) -->

<svg
   xmlns:dc="http://purl.org/dc/elements/1.1/"
   xmlns:cc="http://creativecommons.org/ns#"
   xmlns:rdf="http://www.w3.org/1999/02/22-rdf-syntax-ns#"
   xmlns:svg="http://www.w3.org/2000/svg"
   xmlns="http://www.w3.org/2000/svg"
   xmlns:sodipodi="http://sodipodi.sourceforge.net/DTD/sodipodi-0.dtd"
   xmlns:inkscape="http://www.inkscape.org/namespaces/inkscape"
   width="145.33678mm"
   height="85.336197mm"
   viewBox="0 0 514.97284 302.37235"
   id="svg6092"
   version="1.1"
   inkscape:version="0.91 r13725"
   sodipodi:docname="burger.svg">
  <defs
     id="defs6094" />
  <sodipodi:namedview
     id="base"
     pagecolor="#ffffff"
     bordercolor="#666666"
     borderopacity="1.0"
     inkscape:pageopacity="0.0"
     inkscape:pageshadow="2"
     inkscape:zoom="0.98994949"
     inkscape:cx="311.01817"
     inkscape:cy="265.44023"
     inkscape:document-units="px"
     inkscape:current-layer="layer1"
     showgrid="false"
     fit-margin-top="0"
     fit-margin-left="0"
     fit-margin-right="0"
     fit-margin-bottom="0"
     inkscape:window-width="1920"
     inkscape:window-height="1057"
     inkscape:window-x="-8"
     inkscape:window-y="-8"
     inkscape:window-maximized="1" />
  <metadata
     id="metadata6097">
    <rdf:RDF>
      <cc:Work
         rdf:about="">
        <dc:format>image/svg+xml</dc:format>
        <dc:type
           rdf:resource="http://purl.org/dc/dcmitype/StillImage" />
        <dc:title></dc:title>
      </cc:Work>
    </rdf:RDF>
  </metadata>
  <g
     inkscape:label="Layer 1"
     inkscape:groupmode="layer"
     id="layer1"
     transform="translate(-818.29896,-714.36945)">
    <path
       style="opacity:1;fill:#d1c4c9;fill-opacity:1;stroke:none;stroke-width:1.96099997;stroke-miterlimit:4;stroke-dasharray:none;stroke-opacity:1"
       d="m 1333.2718,954.0787 c 0,39.7706 -46.498,63.3419 -246.9246,62.6482 -182.56113,-0.6317 -240.17301,-17.9498 -237.73681,-62.6482 2.1664,-39.7439 104.43468,-62.7033 238.27031,-62.7033 133.8355,-10e-5 246.3911,22.9325 246.3911,62.7033 z"
       id="path18039-7-6"
       inkscape:connector-curvature="0"
       sodipodi:nodetypes="sssss" />
    <path
       sodipodi:nodetypes="sssss"
       inkscape:connector-curvature="0"
       id="path4373-6-4"
       d="m 1265.9556,929.1283 c 0,51.8839 -40.8974,82.6345 -217.1828,81.7295 -160.57176,-0.8242 -211.24434,-23.417 -209.10154,-81.7295 1.9054,-51.849 91.85558,-81.8013 209.57074,-81.8013 117.7152,-10e-5 216.7136,29.9173 216.7136,81.8013 z"
       style="opacity:1;fill:#c6a700;fill-opacity:1;stroke:none;stroke-width:1.96099997;stroke-miterlimit:4;stroke-dasharray:none;stroke-opacity:1" />
    <path
       sodipodi:nodetypes="sssss"
       inkscape:connector-curvature="0"
       id="path4375-2-8"
       d="m 1266.83,891.43561 c 26.2168,51.17352 -97.2482,74.58942 -218.5115,74.33359 -119.23906,-0.25164 -219.39704,-13.04292 -212.49734,-74.33359 4.5526,-40.44094 96.48458,-73.52558 215.50444,-73.52558 119.0198,0 196.2761,35.99297 215.5044,73.52558 z"
       style="opacity:1;fill:#4e3e3e;fill-opacity:1;stroke:none;stroke-width:1.96099997;stroke-miterlimit:4;stroke-dasharray:none;stroke-opacity:1" />
    <path
       style="fill:#ff616f;fill-opacity:1;fill-rule:evenodd;stroke:none;stroke-width:1px;stroke-linecap:butt;stroke-linejoin:miter;stroke-opacity:1"
       d="m 970.77764,886.44137 c -0.41043,-28.35443 45.24926,-63.18434 119.01256,-56.59406 68.5426,20.12689 87.0005,-10.9898 123.3799,28.29698 -3.9697,60.70561 -36.1835,19.11348 -73.1544,63.33139 -33.0888,61.81315 -169.23806,-6.73733 -169.23806,-35.03431 z"
       id="path16639-1-5"
       inkscape:connector-curvature="0"
       sodipodi:nodetypes="ccccc" />
    <path
       sodipodi:nodetypes="cccccc"
       inkscape:connector-curvature="0"
       id="path4377-4-3"
       d="m 1015.8981,778.8178 c -73.50436,18.2067 -149.31114,32.2689 -197.59914,95.865 29.3464,48.6572 58.6928,43.0002 88.03918,46.9542 55.9457,1.3183 116.18166,5.0881 136.94996,-13.695 116.6988,-44.9366 111.3816,-73.958 111.5164,-103.6906 -40.1366,-17.7262 -88.417,-23.2366 -138.9064,-25.4336 z"
       style="fill:#22d4d4;fill-opacity:1;fill-rule:evenodd;stroke:none;stroke-width:1px;stroke-linecap:butt;stroke-linejoin:miter;stroke-opacity:1" />
    <path
       style="fill:#00a2a3;fill-opacity:1;fill-rule:evenodd;stroke:none;stroke-width:1px;stroke-linecap:butt;stroke-linejoin:miter;stroke-opacity:1"
       d="m 1144.2687,918.5842 c -71.3797,-16.6341 -144.99526,-29.4818 -191.88746,-87.5851 28.4981,-44.4547 56.99626,-39.2863 85.49436,-42.8988 54.3285,-1.2044 112.8234,-4.6487 132.9913,12.5121 113.3256,41.0555 108.1621,67.5704 108.293,94.7349 -38.9764,16.1952 -85.8613,21.2297 -134.8912,23.2369 z"
       id="path4379-5-8"
       inkscape:connector-curvature="0"
       sodipodi:nodetypes="cccccc" />
    <path
       sodipodi:nodetypes="cccc"
       inkscape:connector-curvature="0"
       id="path4387-4-2"
       d="m 832.39677,841.7882 c 9.70042,66.4635 431.49223,51.2046 439.70443,8.2534 4.2063,-17.8002 6.0156,-125.6815 -219.9821,-135.3253 -199.50227,-7.0092 -224.56377,94.1642 -219.72233,127.0719 z"
       style="fill:#c6a700;fill-opacity:1;fill-rule:evenodd;stroke:none;stroke-width:1px;stroke-linecap:butt;stroke-linejoin:miter;stroke-opacity:1" />
    <path
       sodipodi:nodetypes="cccc"
       inkscape:connector-curvature="0"
       id="path4389-3-2"
       d="m 909.28716,785.402 c -2.8187,1.4496 -3.25327,5.3263 -3.00485,8.2598 3.69231,-0.4531 5.74655,-1.7151 7.80078,-5.26 1.01086,-1.6209 -2.41896,-3.9384 -4.79593,-2.9998 z"
       style="fill:#ffffff;fill-opacity:1;fill-rule:evenodd;stroke:none;stroke-width:1px;stroke-linecap:butt;stroke-linejoin:miter;stroke-opacity:1" />
    <path
       style="fill:#ffffff;fill-opacity:1;fill-rule:evenodd;stroke:none;stroke-width:1px;stroke-linecap:butt;stroke-linejoin:miter;stroke-opacity:1"
       d="m 916.11507,757.6228 c -2.8187,1.4496 -3.25327,5.3263 -3.00485,8.2598 3.69231,-0.4531 5.74655,-1.7151 7.80078,-5.26 1.01086,-1.6209 -2.41895,-3.9384 -4.79593,-2.9998 z"
       id="path4391-5-4"
       inkscape:connector-curvature="0"
       sodipodi:nodetypes="cccc" />
    <path
       sodipodi:nodetypes="cccc"
       inkscape:connector-curvature="0"
       id="path4393-7-8"
       d="m 950.25461,750.5517 c -2.8187,1.4496 -3.25326,5.3263 -3.00485,8.2598 3.69232,-0.453 5.74655,-1.7151 7.80078,-5.26 1.01086,-1.6208 -2.41895,-3.9384 -4.79593,-2.9998 z"
       style="fill:#ffffff;fill-opacity:1;fill-rule:evenodd;stroke:none;stroke-width:1px;stroke-linecap:butt;stroke-linejoin:miter;stroke-opacity:1" />
    <path
       style="fill:#ffffff;fill-opacity:1;fill-rule:evenodd;stroke:none;stroke-width:1px;stroke-linecap:butt;stroke-linejoin:miter;stroke-opacity:1"
       d="m 931.72171,787.4223 c -2.8187,1.4496 -3.25326,5.3263 -3.00485,8.2598 3.69232,-0.4531 5.74655,-1.7151 7.80079,-5.26 1.01086,-1.6209 -2.41896,-3.9384 -4.79594,-2.9998 z"
       id="path4395-9-7"
       inkscape:connector-curvature="0"
       sodipodi:nodetypes="cccc" />
    <path
       sodipodi:nodetypes="cccc"
       inkscape:connector-curvature="0"
       id="path4397-4-6"
       d="m 954.48257,775.2794 c -2.8187,1.4496 -3.25326,5.3263 -3.00485,8.2598 3.69232,-0.453 5.74655,-1.7151 7.80079,-5.26 1.01086,-1.6208 -2.41896,-3.9384 -4.79594,-2.9998 z"
       style="fill:#ffffff;fill-opacity:1;fill-rule:evenodd;stroke:none;stroke-width:1px;stroke-linecap:butt;stroke-linejoin:miter;stroke-opacity:1" />
    <path
       style="fill:#ffffff;fill-opacity:1;fill-rule:evenodd;stroke:none;stroke-width:1px;stroke-linecap:butt;stroke-linejoin:miter;stroke-opacity:1"
       d="m 954.48257,809.5651 c -2.8187,1.4496 -3.25326,5.3264 -3.00485,8.2598 3.69232,-0.453 5.74655,-1.715 7.80079,-5.2599 1.01086,-1.6209 -2.41896,-3.9385 -4.79594,-2.9999 z"
       id="path4399-2-8"
       inkscape:connector-curvature="0"
       sodipodi:nodetypes="cccc" />
    <path
       sodipodi:nodetypes="cccc"
       inkscape:connector-curvature="0"
       id="path4401-8-4"
       d="m 1007.5912,755.9937 c -2.8187,1.4496 -3.2532,5.3263 -3.0048,8.2598 3.6923,-0.453 5.7465,-1.7151 7.8008,-5.26 1.0108,-1.6208 -2.419,-3.9384 -4.796,-2.9998 z"
       style="fill:#ffffff;fill-opacity:1;fill-rule:evenodd;stroke:none;stroke-width:1px;stroke-linecap:butt;stroke-linejoin:miter;stroke-opacity:1" />
    <path
       style="fill:#ffffff;fill-opacity:1;fill-rule:evenodd;stroke:none;stroke-width:1px;stroke-linecap:butt;stroke-linejoin:miter;stroke-opacity:1"
       d="m 987.58927,743.8508 c -2.8187,1.4496 -3.25327,5.3264 -3.00485,8.2598 3.69231,-0.453 5.74655,-1.715 7.80078,-5.2599 1.01086,-1.6209 -2.41895,-3.9384 -4.79593,-2.9999 z"
       id="path4403-9-9"
       inkscape:connector-curvature="0"
       sodipodi:nodetypes="cccc" />
    <path
       sodipodi:nodetypes="cccc"
       inkscape:connector-curvature="0"
       id="path4405-5-1"
       d="m 968.27703,729.5651 c -2.8187,1.4496 -3.25327,5.3264 -3.00485,8.2598 3.69231,-0.453 5.74655,-1.715 7.80078,-5.2599 1.01086,-1.6209 -2.41895,-3.9385 -4.79593,-2.9999 z"
       style="fill:#ffffff;fill-opacity:1;fill-rule:evenodd;stroke:none;stroke-width:1px;stroke-linecap:butt;stroke-linejoin:miter;stroke-opacity:1" />
    <path
       style="fill:#ffffff;fill-opacity:1;fill-rule:evenodd;stroke:none;stroke-width:1px;stroke-linecap:butt;stroke-linejoin:miter;stroke-opacity:1"
       d="m 937.23949,733.1366 c -2.8187,1.4496 -3.25326,5.3263 -3.00485,8.2598 3.69232,-0.4531 5.74655,-1.7151 7.80079,-5.26 1.01086,-1.6209 -2.41896,-3.9384 -4.79594,-2.9998 z"
       id="path4407-4-8"
       inkscape:connector-curvature="0"
       sodipodi:nodetypes="cccc" />
    <path
       sodipodi:nodetypes="cccc"
       inkscape:connector-curvature="0"
       id="path4409-9-0"
       d="m 889.64861,748.1366 c -2.8187,1.4496 -3.25326,5.3263 -3.00485,8.2598 3.69232,-0.4531 5.74655,-1.7151 7.80079,-5.26 1.01086,-1.6209 -2.41896,-3.9384 -4.79594,-2.9998 z"
       style="fill:#ffffff;fill-opacity:1;fill-rule:evenodd;stroke:none;stroke-width:1px;stroke-linecap:butt;stroke-linejoin:miter;stroke-opacity:1" />
    <path
       style="fill:#ffffff;fill-opacity:1;fill-rule:evenodd;stroke:none;stroke-width:1px;stroke-linecap:butt;stroke-linejoin:miter;stroke-opacity:1"
       d="m 874.47472,782.4223 c -2.8187,1.4496 -3.25327,5.3263 -3.00485,8.2598 3.69231,-0.4531 5.74655,-1.7151 7.80078,-5.26 1.01086,-1.6209 -2.41896,-3.9384 -4.79593,-2.9998 z"
       id="path4411-0-9"
       inkscape:connector-curvature="0"
       sodipodi:nodetypes="cccc" />
    <path
       style="fill:#ffffff;fill-opacity:1;fill-rule:evenodd;stroke:none;stroke-width:1px;stroke-linecap:butt;stroke-linejoin:miter;stroke-opacity:1"
       d="m 1014.8148,816.8306 c -2.8187,1.4496 -3.2533,5.3263 -3.0049,8.2598 3.6923,-0.4531 5.7466,-1.7151 7.8008,-5.26 1.0109,-1.6209 -2.419,-3.9384 -4.7959,-2.9998 z"
       id="path4413-1-1"
       inkscape:connector-curvature="0"
       sodipodi:nodetypes="cccc" />
    <path
       sodipodi:nodetypes="cccc"
       inkscape:connector-curvature="0"
       id="path4415-9-4"
       d="m 1021.6427,789.0514 c -2.8187,1.4496 -3.2533,5.3263 -3.0049,8.2598 3.6923,-0.4531 5.7466,-1.7151 7.8008,-5.26 1.0109,-1.6209 -2.4189,-3.9384 -4.7959,-2.9998 z"
       style="fill:#ffffff;fill-opacity:1;fill-rule:evenodd;stroke:none;stroke-width:1px;stroke-linecap:butt;stroke-linejoin:miter;stroke-opacity:1" />
    <path
       style="fill:#ffffff;fill-opacity:1;fill-rule:evenodd;stroke:none;stroke-width:1px;stroke-linecap:butt;stroke-linejoin:miter;stroke-opacity:1"
       d="m 1055.7822,781.9803 c -2.8187,1.4496 -3.2532,5.3263 -3.0048,8.2598 3.6923,-0.4531 5.7465,-1.7151 7.8008,-5.26 1.0108,-1.6209 -2.419,-3.9384 -4.796,-2.9998 z"
       id="path4417-2-0"
       inkscape:connector-curvature="0"
       sodipodi:nodetypes="cccc" />
    <path
       sodipodi:nodetypes="cccc"
       inkscape:connector-curvature="0"
       id="path4419-4-5"
       d="m 1037.2493,818.8509 c -2.8187,1.4496 -3.2532,5.3263 -3.0048,8.2598 3.6923,-0.4531 5.7465,-1.7151 7.8008,-5.26 1.0108,-1.6209 -2.419,-3.9384 -4.796,-2.9998 z"
       style="fill:#ffffff;fill-opacity:1;fill-rule:evenodd;stroke:none;stroke-width:1px;stroke-linecap:butt;stroke-linejoin:miter;stroke-opacity:1" />
    <path
       style="fill:#ffffff;fill-opacity:1;fill-rule:evenodd;stroke:none;stroke-width:1px;stroke-linecap:butt;stroke-linejoin:miter;stroke-opacity:1"
       d="m 1060.0102,806.708 c -2.8187,1.4496 -3.2533,5.3263 -3.0049,8.2598 3.6923,-0.4531 5.7466,-1.7151 7.8008,-5.26 1.0109,-1.6208 -2.4189,-3.9384 -4.7959,-2.9998 z"
       id="path4421-9-0"
       inkscape:connector-curvature="0"
       sodipodi:nodetypes="cccc" />
    <path
       sodipodi:nodetypes="cccc"
       inkscape:connector-curvature="0"
       id="path4423-0-8"
       d="m 1101.3936,823.1366 c -2.8187,1.4496 -3.2533,5.3263 -3.0049,8.2598 3.6923,-0.4531 5.7466,-1.7151 7.8008,-5.26 1.0108,-1.6209 -2.419,-3.9384 -4.7959,-2.9998 z"
       style="fill:#ffffff;fill-opacity:1;fill-rule:evenodd;stroke:none;stroke-width:1px;stroke-linecap:butt;stroke-linejoin:miter;stroke-opacity:1" />
    <path
       style="fill:#ffffff;fill-opacity:1;fill-rule:evenodd;stroke:none;stroke-width:1px;stroke-linecap:butt;stroke-linejoin:miter;stroke-opacity:1"
       d="m 1113.1188,787.4223 c -2.8187,1.4496 -3.2532,5.3263 -3.0048,8.2598 3.6923,-0.4531 5.7465,-1.7151 7.8008,-5.26 1.0108,-1.6209 -2.419,-3.9384 -4.796,-2.9998 z"
       id="path4425-1-4"
       inkscape:connector-curvature="0"
       sodipodi:nodetypes="cccc" />
    <path
       sodipodi:nodetypes="cccc"
       inkscape:connector-curvature="0"
       id="path4427-3-0"
       d="m 1093.1169,775.2794 c -2.8187,1.4496 -3.2533,5.3263 -3.0049,8.2598 3.6923,-0.453 5.7466,-1.7151 7.8008,-5.26 1.0109,-1.6208 -2.4189,-3.9384 -4.7959,-2.9998 z"
       style="fill:#ffffff;fill-opacity:1;fill-rule:evenodd;stroke:none;stroke-width:1px;stroke-linecap:butt;stroke-linejoin:miter;stroke-opacity:1" />
    <path
       style="fill:#ffffff;fill-opacity:1;fill-rule:evenodd;stroke:none;stroke-width:1px;stroke-linecap:butt;stroke-linejoin:miter;stroke-opacity:1"
       d="m 1084.8402,754.5651 c -2.8187,1.4496 -3.2533,5.3264 -3.0049,8.2598 3.6924,-0.453 5.7466,-1.715 7.8008,-5.2599 1.0109,-1.6209 -2.4189,-3.9385 -4.7959,-2.9999 z"
       id="path4429-9-8"
       inkscape:connector-curvature="0"
       sodipodi:nodetypes="cccc" />
    <path
       sodipodi:nodetypes="cccc"
       inkscape:connector-curvature="0"
       id="path4431-8-5"
       d="m 1206.2314,815.2794 c -2.8187,1.4496 -3.2532,5.3263 -3.0048,8.2598 3.6923,-0.453 5.7465,-1.7151 7.8008,-5.26 1.0108,-1.6208 -2.419,-3.9384 -4.796,-2.9998 z"
       style="fill:#ffffff;fill-opacity:1;fill-rule:evenodd;stroke:none;stroke-width:1px;stroke-linecap:butt;stroke-linejoin:miter;stroke-opacity:1" />
    <path
       style="fill:#ffffff;fill-opacity:1;fill-rule:evenodd;stroke:none;stroke-width:1px;stroke-linecap:butt;stroke-linejoin:miter;stroke-opacity:1"
       d="m 995.17622,779.5651 c -2.8187,1.4496 -3.25327,5.3264 -3.00485,8.2598 3.69231,-0.453 5.74655,-1.715 7.80078,-5.2599 1.01085,-1.6209 -2.41895,-3.9385 -4.79593,-2.9999 z"
       id="path4433-1-9"
       inkscape:connector-curvature="0"
       sodipodi:nodetypes="cccc" />
    <path
       sodipodi:nodetypes="cccc"
       inkscape:connector-curvature="0"
       id="path4435-9-9"
       d="m 980.00232,813.8509 c -2.8187,1.4496 -3.25327,5.3263 -3.00485,8.2598 3.69232,-0.4531 5.74655,-1.7151 7.80078,-5.26 1.01086,-1.6209 -2.41895,-3.9384 -4.79593,-2.9998 z"
       style="fill:#ffffff;fill-opacity:1;fill-rule:evenodd;stroke:none;stroke-width:1px;stroke-linecap:butt;stroke-linejoin:miter;stroke-opacity:1" />
    <path
       sodipodi:nodetypes="cccc"
       inkscape:connector-curvature="0"
       id="path4437-5-8"
       d="m 1132.0677,805.402 c -2.8187,1.4496 -3.2533,5.3263 -3.0049,8.2598 3.6923,-0.4531 5.7466,-1.7151 7.8008,-5.26 1.0109,-1.6209 -2.419,-3.9384 -4.7959,-2.9998 z"
       style="fill:#ffffff;fill-opacity:1;fill-rule:evenodd;stroke:none;stroke-width:1px;stroke-linecap:butt;stroke-linejoin:miter;stroke-opacity:1" />
    <path
       style="fill:#ffffff;fill-opacity:1;fill-rule:evenodd;stroke:none;stroke-width:1px;stroke-linecap:butt;stroke-linejoin:miter;stroke-opacity:1"
       d="m 1138.8956,777.6228 c -2.8187,1.4496 -3.2533,5.3263 -3.0049,8.2598 3.6923,-0.4531 5.7466,-1.7151 7.8008,-5.26 1.0109,-1.6209 -2.419,-3.9384 -4.7959,-2.9998 z"
       id="path4439-1-1"
       inkscape:connector-curvature="0"
       sodipodi:nodetypes="cccc" />
    <path
       sodipodi:nodetypes="cccc"
       inkscape:connector-curvature="0"
       id="path4441-8-2"
       d="m 1173.0351,770.5517 c -2.8187,1.4496 -3.2533,5.3263 -3.0048,8.2598 3.6923,-0.453 5.7465,-1.7151 7.8007,-5.26 1.0109,-1.6208 -2.4189,-3.9384 -4.7959,-2.9998 z"
       style="fill:#ffffff;fill-opacity:1;fill-rule:evenodd;stroke:none;stroke-width:1px;stroke-linecap:butt;stroke-linejoin:miter;stroke-opacity:1" />
    <path
       style="fill:#ffffff;fill-opacity:1;fill-rule:evenodd;stroke:none;stroke-width:1px;stroke-linecap:butt;stroke-linejoin:miter;stroke-opacity:1"
       d="m 1154.5022,807.4223 c -2.8187,1.4496 -3.2532,5.3263 -3.0048,8.2598 3.6923,-0.4531 5.7465,-1.7151 7.8008,-5.26 1.0108,-1.6209 -2.419,-3.9384 -4.796,-2.9998 z"
       id="path4443-0-7"
       inkscape:connector-curvature="0"
       sodipodi:nodetypes="cccc" />
    <path
       sodipodi:nodetypes="cccc"
       inkscape:connector-curvature="0"
       id="path4445-7-6"
       d="m 1177.2631,795.2794 c -2.8187,1.4496 -3.2533,5.3263 -3.0049,8.2598 3.6923,-0.453 5.7466,-1.7151 7.8008,-5.26 1.0109,-1.6208 -2.4189,-3.9384 -4.7959,-2.9998 z"
       style="fill:#ffffff;fill-opacity:1;fill-rule:evenodd;stroke:none;stroke-width:1px;stroke-linecap:butt;stroke-linejoin:miter;stroke-opacity:1" />
    <path
       style="fill:#ffffff;fill-opacity:1;fill-rule:evenodd;stroke:none;stroke-width:1px;stroke-linecap:butt;stroke-linejoin:miter;stroke-opacity:1"
       d="m 1177.2631,829.5651 c -2.8187,1.4496 -3.2533,5.3264 -3.0049,8.2598 3.6923,-0.453 5.7466,-1.715 7.8008,-5.2599 1.0109,-1.6209 -2.4189,-3.9385 -4.7959,-2.9999 z"
       id="path4447-6-7"
       inkscape:connector-curvature="0"
       sodipodi:nodetypes="cccc" />
    <path
       sodipodi:nodetypes="cccc"
       inkscape:connector-curvature="0"
       id="path4449-3-8"
       d="m 1230.3717,775.9937 c -2.8187,1.4496 -3.2532,5.3263 -3.0048,8.2598 3.6923,-0.453 5.7465,-1.7151 7.8008,-5.26 1.0108,-1.6208 -2.419,-3.9384 -4.796,-2.9998 z"
       style="fill:#ffffff;fill-opacity:1;fill-rule:evenodd;stroke:none;stroke-width:1px;stroke-linecap:butt;stroke-linejoin:miter;stroke-opacity:1" />
    <path
       style="fill:#ffffff;fill-opacity:1;fill-rule:evenodd;stroke:none;stroke-width:1px;stroke-linecap:butt;stroke-linejoin:miter;stroke-opacity:1"
       d="m 1210.3698,763.8508 c -2.8187,1.4496 -3.2533,5.3264 -3.0049,8.2598 3.6923,-0.453 5.7466,-1.715 7.8008,-5.2599 1.0109,-1.6209 -2.4189,-3.9384 -4.7959,-2.9999 z"
       id="path4451-2-0"
       inkscape:connector-curvature="0"
       sodipodi:nodetypes="cccc" />
    <path
       sodipodi:nodetypes="cccc"
       inkscape:connector-curvature="0"
       id="path4453-6-3"
       d="m 1191.0575,749.5651 c -2.8187,1.4496 -3.2532,5.3264 -3.0048,8.2598 3.6923,-0.453 5.7465,-1.715 7.8008,-5.2599 1.0108,-1.6209 -2.419,-3.9385 -4.796,-2.9999 z"
       style="fill:#ffffff;fill-opacity:1;fill-rule:evenodd;stroke:none;stroke-width:1px;stroke-linecap:butt;stroke-linejoin:miter;stroke-opacity:1" />
    <path
       style="fill:#ffffff;fill-opacity:1;fill-rule:evenodd;stroke:none;stroke-width:1px;stroke-linecap:butt;stroke-linejoin:miter;stroke-opacity:1"
       d="m 1160.02,753.1366 c -2.8187,1.4496 -3.2533,5.3263 -3.0049,8.2598 3.6924,-0.4531 5.7466,-1.7151 7.8008,-5.26 1.0109,-1.6209 -2.4189,-3.9384 -4.7959,-2.9998 z"
       id="path4455-4-6"
       inkscape:connector-curvature="0"
       sodipodi:nodetypes="cccc" />
    <path
       sodipodi:nodetypes="cccc"
       inkscape:connector-curvature="0"
       id="path4457-9-5"
       d="m 1112.4291,768.1366 c -2.8187,1.4496 -3.2532,5.3263 -3.0048,8.2598 3.6923,-0.4531 5.7465,-1.7151 7.8008,-5.26 1.0108,-1.6209 -2.419,-3.9384 -4.796,-2.9998 z"
       style="fill:#ffffff;fill-opacity:1;fill-rule:evenodd;stroke:none;stroke-width:1px;stroke-linecap:butt;stroke-linejoin:miter;stroke-opacity:1" />
    <path
       style="fill:#ffffff;fill-opacity:1;fill-rule:evenodd;stroke:none;stroke-width:1px;stroke-linecap:butt;stroke-linejoin:miter;stroke-opacity:1"
       d="m 1097.2552,802.4223 c -2.8187,1.4496 -3.2532,5.3263 -3.0048,8.2598 3.6923,-0.4531 5.7465,-1.7151 7.8008,-5.26 1.0108,-1.6209 -2.419,-3.9384 -4.796,-2.9998 z"
       id="path4459-3-6"
       inkscape:connector-curvature="0"
       sodipodi:nodetypes="cccc" />
    <path
       style="fill:#ffffff;fill-opacity:1;fill-rule:evenodd;stroke:none;stroke-width:1px;stroke-linecap:butt;stroke-linejoin:miter;stroke-opacity:1"
       d="m 1036.8859,776.8306 c -2.8187,1.4496 -3.2533,5.3263 -3.0049,8.2598 3.6924,-0.4531 5.7466,-1.7151 7.8008,-5.26 1.0109,-1.6209 -2.4189,-3.9384 -4.7959,-2.9998 z"
       id="path4461-9-4"
       inkscape:connector-curvature="0"
       sodipodi:nodetypes="cccc" />
    <path
       sodipodi:nodetypes="cccc"
       inkscape:connector-curvature="0"
       id="path4463-7-5"
       d="m 1043.7138,749.0514 c -2.8187,1.4496 -3.2533,5.3263 -3.0048,8.2598 3.6923,-0.4531 5.7465,-1.7151 7.8007,-5.26 1.0109,-1.6209 -2.4189,-3.9384 -4.7959,-2.9998 z"
       style="fill:#ffffff;fill-opacity:1;fill-rule:evenodd;stroke:none;stroke-width:1px;stroke-linecap:butt;stroke-linejoin:miter;stroke-opacity:1" />
    <path
       style="fill:#ffffff;fill-opacity:1;fill-rule:evenodd;stroke:none;stroke-width:1px;stroke-linecap:butt;stroke-linejoin:miter;stroke-opacity:1"
       d="m 1223.3849,801.9803 c -2.8187,1.4496 -3.2533,5.3263 -3.0049,8.2598 3.6924,-0.4531 5.7466,-1.7151 7.8008,-5.26 1.0109,-1.6209 -2.4189,-3.9384 -4.7959,-2.9998 z"
       id="path4465-3-3"
       inkscape:connector-curvature="0"
       sodipodi:nodetypes="cccc" />
    <path
       sodipodi:nodetypes="cccc"
       inkscape:connector-curvature="0"
       id="path4467-7-2"
       d="m 1037.2493,727.4223 c -2.8187,1.4496 -3.2532,5.3263 -3.0048,8.2598 3.6923,-0.4531 5.7465,-1.7151 7.8008,-5.26 1.0108,-1.6209 -2.419,-3.9384 -4.796,-2.9998 z"
       style="fill:#ffffff;fill-opacity:1;fill-rule:evenodd;stroke:none;stroke-width:1px;stroke-linecap:butt;stroke-linejoin:miter;stroke-opacity:1" />
    <path
       style="fill:#ffffff;fill-opacity:1;fill-rule:evenodd;stroke:none;stroke-width:1px;stroke-linecap:butt;stroke-linejoin:miter;stroke-opacity:1"
       d="m 1201.4034,785.9937 c -2.8187,1.4496 -3.2533,5.3263 -3.0049,8.2598 3.6923,-0.453 5.7466,-1.7151 7.8008,-5.26 1.0109,-1.6208 -2.4189,-3.9384 -4.7959,-2.9998 z"
       id="path4469-4-8"
       inkscape:connector-curvature="0"
       sodipodi:nodetypes="cccc" />
    <path
       sodipodi:nodetypes="cccc"
       inkscape:connector-curvature="0"
       id="path4471-7-6"
       d="m 1082.0813,800.9937 c -2.8187,1.4496 -3.2533,5.3263 -3.0048,8.2598 3.6923,-0.453 5.7465,-1.7151 7.8007,-5.26 1.0109,-1.6208 -2.4189,-3.9384 -4.7959,-2.9998 z"
       style="fill:#ffffff;fill-opacity:1;fill-rule:evenodd;stroke:none;stroke-width:1px;stroke-linecap:butt;stroke-linejoin:miter;stroke-opacity:1" />
    <path
       style="fill:#ffffff;fill-opacity:1;fill-rule:evenodd;stroke:none;stroke-width:1px;stroke-linecap:butt;stroke-linejoin:miter;stroke-opacity:1"
       d="m 1135.19,747.4223 c -2.8187,1.4496 -3.2533,5.3263 -3.0049,8.2598 3.6923,-0.4531 5.7466,-1.7151 7.8008,-5.26 1.0109,-1.6209 -2.4189,-3.9384 -4.7959,-2.9998 z"
       id="path4473-4-8"
       inkscape:connector-curvature="0"
       sodipodi:nodetypes="cccc" />
    <path
       sodipodi:nodetypes="cccc"
       inkscape:connector-curvature="0"
       id="path4475-6-4"
       d="m 1115.188,735.2794 c -2.8187,1.4496 -3.2533,5.3263 -3.0048,8.2598 3.6923,-0.453 5.7465,-1.7151 7.8007,-5.26 1.0109,-1.6208 -2.4189,-3.9384 -4.7959,-2.9998 z"
       style="fill:#ffffff;fill-opacity:1;fill-rule:evenodd;stroke:none;stroke-width:1px;stroke-linecap:butt;stroke-linejoin:miter;stroke-opacity:1" />
    <path
       style="fill:#ffffff;fill-opacity:1;fill-rule:evenodd;stroke:none;stroke-width:1px;stroke-linecap:butt;stroke-linejoin:miter;stroke-opacity:1"
       d="m 1095.8758,720.9937 c -2.8187,1.4496 -3.2533,5.3263 -3.0049,8.2598 3.6923,-0.453 5.7466,-1.7151 7.8008,-5.26 1.0109,-1.6208 -2.419,-3.9384 -4.7959,-2.9998 z"
       id="path4477-2-9"
       inkscape:connector-curvature="0"
       sodipodi:nodetypes="cccc" />
    <path
       sodipodi:nodetypes="cccc"
       inkscape:connector-curvature="0"
       id="path4480-9-6"
       d="m 1064.8382,724.5651 c -2.8187,1.4496 -3.2532,5.3264 -3.0048,8.2598 3.6923,-0.453 5.7465,-1.715 7.8008,-5.2599 1.0108,-1.6209 -2.419,-3.9385 -4.796,-2.9999 z"
       style="fill:#ffffff;fill-opacity:1;fill-rule:evenodd;stroke:none;stroke-width:1px;stroke-linecap:butt;stroke-linejoin:miter;stroke-opacity:1" />
    <path
       style="fill:#ffffff;fill-opacity:1;fill-rule:evenodd;stroke:none;stroke-width:1px;stroke-linecap:butt;stroke-linejoin:miter;stroke-opacity:1"
       d="m 1017.2474,739.5651 c -2.8187,1.4496 -3.2533,5.3264 -3.0049,8.2598 3.6923,-0.453 5.7466,-1.715 7.8008,-5.2599 1.0108,-1.6209 -2.419,-3.9385 -4.7959,-2.9999 z"
       id="path4482-0-4"
       inkscape:connector-curvature="0"
       sodipodi:nodetypes="cccc" />
    <path
       sodipodi:nodetypes="cccc"
       inkscape:connector-curvature="0"
       id="path4484-4-8"
       d="m 893.78695,809.5651 c -2.8187,1.4496 -3.25327,5.3264 -3.00485,8.2598 3.69231,-0.453 5.74655,-1.715 7.80078,-5.2599 1.01086,-1.6209 -2.41895,-3.9384 -4.79593,-2.9999 z"
       style="fill:#ffffff;fill-opacity:1;fill-rule:evenodd;stroke:none;stroke-width:1px;stroke-linecap:butt;stroke-linejoin:miter;stroke-opacity:1" />
  </g>
</svg>
