<?xml version="1.0" encoding="UTF-8" standalone="no"?>
<svg
   xmlns:dc="http://purl.org/dc/elements/1.1/"
   xmlns:cc="http://creativecommons.org/ns#"
   xmlns:rdf="http://www.w3.org/1999/02/22-rdf-syntax-ns#"
   xmlns:svg="http://www.w3.org/2000/svg"
   xmlns="http://www.w3.org/2000/svg"
   xmlns:sodipodi="http://sodipodi.sourceforge.net/DTD/sodipodi-0.dtd"
   xmlns:inkscape="http://www.inkscape.org/namespaces/inkscape"
   version="1.1"
   id="svg2"
   viewBox="0 0 288.74363 589.48949"
   height="166.36703mm"
   width="81.489868mm"
   inkscape:version="0.91 r13725"
   sodipodi:docname="drink.svg">
  <sodipodi:namedview
     pagecolor="#ffffff"
     bordercolor="#666666"
     borderopacity="1"
     objecttolerance="10"
     gridtolerance="10"
     guidetolerance="10"
     inkscape:pageopacity="0"
     inkscape:pageshadow="2"
     inkscape:window-width="1280"
     inkscape:window-height="697"
     id="namedview11617"
     showgrid="false"
     inkscape:zoom="0.40034641"
     inkscape:cx="223.88781"
     inkscape:cy="161.70223"
     inkscape:window-x="-8"
     inkscape:window-y="1072"
     inkscape:window-maximized="1"
     inkscape:current-layer="svg2" />
  <defs
     id="defs4" />
  <metadata
     id="metadata7">
    <rdf:RDF>
      <cc:Work
         rdf:about="">
        <dc:format>image/svg+xml</dc:format>
        <dc:type
           rdf:resource="http://purl.org/dc/dcmitype/StillImage" />
        <dc:title></dc:title>
      </cc:Work>
    </rdf:RDF>
  </metadata>
  <g
     transform="translate(2537.0077,-846.31978)"
     id="g4535">
    <path
       inkscape:connector-curvature="0"
       style="fill:#22d4d4;fill-opacity:1;fill-rule:evenodd;stroke:none;stroke-width:1px;stroke-linecap:butt;stroke-linejoin:miter;stroke-opacity:1"
       d="m -2525.5938,1022.495 c 1.5593,129.6331 42.1418,390.7894 50.8928,395.8699 57.8055,28.3292 118.1159,16.9864 178.6443,2.1932 9.1022,-2.357 27.1892,-268.1243 39.4679,-401.3528 z"
       id="path4537"
       sodipodi:nodetypes="ccccc" />
    <path
       inkscape:connector-curvature="0"
       style="fill:#e3e3f7;fill-opacity:1;fill-rule:evenodd;stroke:none;stroke-width:1px;stroke-linecap:butt;stroke-linejoin:miter;stroke-opacity:1"
       d="m -2400.6522,978.60619 c -59.2956,1.02578 -109.9414,16.46904 -129.3841,32.92291 -4.449,5.3667 -7.6403,12.2978 -6.8513,20.0455 1.9585,30.7432 291.0778,24.5966 288.6078,-6.8864 -0.7997,-7.8222 -2.4847,-14.8191 -7.5468,-18.6672 -33.2893,-14.89013 -68.5033,-28.93592 -144.8256,-27.41481 z"
       id="path4539" />
    <path
       inkscape:connector-curvature="0"
       style="fill:#d62246;fill-opacity:1;fill-rule:evenodd;stroke:none;stroke-width:1px;stroke-linecap:butt;stroke-linejoin:miter;stroke-opacity:1"
       d="m -2403.1616,1008.2393 c -0.1608,-38.39053 -2.8631,-93.67835 -0.4824,-115.17166 1.6445,-10.76109 40.0425,-45.79246 44.6611,-46.60518 12.3848,-2.18424 103.2317,21.34858 104.7336,26.67698 1.9078,9.80375 -1.8529,15.61388 -6.1756,18.1086 -33.1704,-7.88712 -70.0715,-23.84843 -94.4808,-22.69181 -8.9148,7.03647 -18.583,15.74334 -27.4185,29.80119 l -1.6512,110.43018 c -4.8358,1.4301 -13.4246,4.6196 -19.1862,-0.5483 z"
       id="path4541" />
  </g>
</svg>
