<?xml version="1.0" encoding="UTF-8" standalone="no"?>
<!-- Created with Inkscape (http://www.inkscape.org/) -->

<svg
   xmlns:dc="http://purl.org/dc/elements/1.1/"
   xmlns:cc="http://creativecommons.org/ns#"
   xmlns:rdf="http://www.w3.org/1999/02/22-rdf-syntax-ns#"
   xmlns:svg="http://www.w3.org/2000/svg"
   xmlns="http://www.w3.org/2000/svg"
   xmlns:sodipodi="http://sodipodi.sourceforge.net/DTD/sodipodi-0.dtd"
   xmlns:inkscape="http://www.inkscape.org/namespaces/inkscape"
   width="354.66519mm"
   height="203.92097mm"
   viewBox="0 0 1256.6877 722.55463"
   id="svg10064"
   version="1.1"
   inkscape:version="0.91 r13725"
   sodipodi:docname="food_group.svg">
  <defs
     id="defs10066" />
  <sodipodi:namedview
     id="base"
     pagecolor="#ffffff"
     bordercolor="#666666"
     borderopacity="1.0"
     inkscape:pageopacity="0.0"
     inkscape:pageshadow="2"
     inkscape:zoom="0.7"
     inkscape:cx="506.32763"
     inkscape:cy="289.03351"
     inkscape:document-units="px"
     inkscape:current-layer="layer1"
     showgrid="false"
     inkscape:window-width="1920"
     inkscape:window-height="1057"
     inkscape:window-x="-8"
     inkscape:window-y="1072"
     inkscape:window-maximized="1"
     fit-margin-top="0"
     fit-margin-left="0"
     fit-margin-right="0"
     fit-margin-bottom="0" />
  <metadata
     id="metadata10069">
    <rdf:RDF>
      <cc:Work
         rdf:about="">
        <dc:format>image/svg+xml</dc:format>
        <dc:type
           rdf:resource="http://purl.org/dc/dcmitype/StillImage" />
        <dc:title></dc:title>
      </cc:Work>
    </rdf:RDF>
  </metadata>
  <g
     inkscape:label="Layer 1"
     inkscape:groupmode="layer"
     id="layer1"
     transform="translate(636.57666,25.457239)">
    <g
       id="g10716"
       transform="matrix(0.56114657,-0.82771645,0.82771645,0.56114657,-1443.1525,-215.69192)">
      <path
         style="fill:#f7e3b5;fill-opacity:1;fill-rule:evenodd;stroke:none;stroke-width:1px;stroke-linecap:butt;stroke-linejoin:miter;stroke-opacity:1"
         d="m 389.92935,1026.0661 c 16.6892,-2.9278 19.3418,-2.6031 47.7989,0.4838 28.8533,10.3318 14.4386,139.7813 21.6579,209.6719 -223.2959,54.3318 -95.883,-53.0012 -123.0415,-129.4731 9.2124,-39.3717 21.63,-74.1196 53.5847,-80.6826 z"
         id="path4488"
         inkscape:connector-curvature="0"
         sodipodi:nodetypes="ccccc" />
      <path
         style="fill:#e3e3f7;fill-opacity:1;fill-rule:evenodd;stroke:none;stroke-width:1px;stroke-linecap:butt;stroke-linejoin:miter;stroke-opacity:1"
         d="m 395.92785,1024.5239 c -187.0897,21.1313 -370.5863,50.6073 -550.19478,89.1136 -34.44913,8.4011 1.58227,211.9111 29.1527,211.5648 184.00648,-3 379.36438,-44.4675 561.77548,-82.9916 -59.0939,23.8269 -92.9995,-128.5771 -84.4339,-138.4585 -5.8195,-42.7997 5.7698,-56.8752 43.7005,-79.2283 z"
         id="path4490"
         inkscape:connector-curvature="0"
         sodipodi:nodetypes="ccccccc" />
      <path
         style="fill:#55cc66;fill-opacity:1;fill-rule:evenodd;stroke:none;stroke-width:1px;stroke-linecap:butt;stroke-linejoin:miter;stroke-opacity:1"
         d="m 413.57595,1034.2591 c 26.6755,-11.8054 35.6403,-1.322 56.1096,-1.5851 7.9808,7.4959 1.9526,11.028 -5.4214,14.1794 18.8447,3.2048 20.6469,17.5463 20.6469,17.5463 -2.2904,13.6933 9.3018,18.4664 -4.4647,22.7802 17.1352,1.1616 18.3445,0.9494 20.0031,18.7438 1.9337,8.4133 7.6663,16.0529 3.1771,25.7743 -1.7595,18.2763 1.7101,17.1275 9.8929,30.8093 -0.8302,8.4665 0.3092,13.5747 -14.6002,20.5781 11.4862,10.4453 13.5827,23.7805 12.5871,38.0673 -6.3287,-7.9847 -11.2372,3.9333 -28.4294,2.0204 -2.5869,7.0115 -9.0949,9.6782 -18.0895,13.5502 l -19.1405,-0.8862 c -11.1697,-4.3587 -21.6412,-18.3054 -31.1758,-45.1181 -12.1161,-19.9431 -62.6047,-123.5752 -1.0952,-156.4599 z"
         id="path4492"
         inkscape:connector-curvature="0"
         sodipodi:nodetypes="ccccccccccccccc" />
      <path
         style="fill:#d62246;fill-opacity:1;fill-rule:evenodd;stroke:none;stroke-width:1px;stroke-linecap:butt;stroke-linejoin:miter;stroke-opacity:1"
         d="m 413.69895,1189.4324 c -58.2043,-47.5223 -33.8127,-125.4965 -18.2261,-139.2765 26.3074,9.5268 71.2177,16.2779 87.7139,103.8632 6.3018,56.3091 -22.3331,66.8751 -43.1855,78.2463 -16.4056,-4.7772 -21.3894,-16.782 -26.3023,-42.833 z"
         id="path4494"
         inkscape:connector-curvature="0"
         sodipodi:nodetypes="ccccc" />
      <path
         style="fill:#bcd422;fill-opacity:1;fill-rule:evenodd;stroke:none;stroke-width:1px;stroke-linecap:butt;stroke-linejoin:miter;stroke-opacity:1"
         d="m 379.56915,1084.127 c 6.5657,-6.295 13.3759,-7.2811 20.4135,-3.3277 -4.608,-0.8987 -5.3668,23.5466 -1.2025,25.1854 6.8469,2.6943 19.9585,16.5512 19.9585,16.5512 2.503,17.0471 -1.8427,27.536 -6.9203,37.9822 5.4341,-5.6776 12.2619,11.3077 16.8151,27.2642 14.3128,4.5271 -1.0276,24.1881 -9.6154,23.7054 -2.8211,-6.6142 -5.6119,-13.2341 -7.0388,-20.1134 -36.6601,-29.029 -42.7623,-69.2786 -32.4101,-107.2473 z"
         id="path4496"
         inkscape:connector-curvature="0"
         sodipodi:nodetypes="ccscccccc" />
    </g>
    <g
       transform="translate(2291.9456,-811.83356)"
       id="g19187">
      <path
         style="fill:#22d4d4;fill-opacity:1;fill-rule:evenodd;stroke:none;stroke-width:1px;stroke-linecap:butt;stroke-linejoin:miter;stroke-opacity:1"
         d="m -2525.5938,1022.495 c 1.5593,129.6331 41.5823,390.3944 50.8928,395.8699 57.8055,28.3292 118.1159,16.9864 178.6443,2.1932 7.4139,-2.078 27.1892,-268.1243 39.4679,-401.3528 z"
         id="path19189"
         inkscape:connector-curvature="0"
         sodipodi:nodetypes="ccccc" />
      <path
         style="fill:#e3e3f7;fill-opacity:1;fill-rule:evenodd;stroke:none;stroke-width:1px;stroke-linecap:butt;stroke-linejoin:miter;stroke-opacity:1"
         d="m -2400.6522,978.60619 c -59.2956,1.02578 -109.9414,16.46904 -129.3841,32.92291 -4.449,5.3667 -7.6403,12.2978 -6.8513,20.0455 1.9585,30.7432 291.0778,24.5966 288.6078,-6.8864 -0.7997,-7.8222 -2.4847,-14.8191 -7.5468,-18.6672 -33.2893,-14.89013 -68.5033,-28.93592 -144.8256,-27.41481 z"
         id="path19191"
         inkscape:connector-curvature="0"
         sodipodi:nodetypes="cccccc" />
      <path
         style="fill:#d62246;fill-opacity:1;fill-rule:evenodd;stroke:none;stroke-width:1px;stroke-linecap:butt;stroke-linejoin:miter;stroke-opacity:1"
         d="m -2403.1616,1008.2393 c -0.1608,-38.39053 -2.8631,-93.67835 -0.4824,-115.17166 1.6445,-10.76109 40.0425,-45.79246 44.6611,-46.60518 12.3848,-2.18424 103.2317,21.34858 104.7336,26.67698 1.9078,9.80375 -1.8529,15.61388 -6.1756,18.1086 -33.1704,-7.88712 -70.0715,-23.84843 -94.4808,-22.69181 -8.9148,7.03647 -18.583,15.74334 -27.4185,29.80119 l -1.6512,110.43018 c -4.8358,1.4301 -13.4246,4.6196 -19.1862,-0.5483 z"
         id="path19193"
         inkscape:connector-curvature="0"
         sodipodi:nodetypes="ccccccccc" />
    </g>
    <g
       transform="translate(163.58861,-888.00055)"
       id="g4501">
      <path
         style="fill:#f7e3b5;fill-opacity:1;fill-rule:evenodd;stroke:none;stroke-width:1px;stroke-linecap:butt;stroke-linejoin:miter;stroke-opacity:1"
         d="m -65.082985,1323.0817 c 31.62354,-5.7035 52.98275,-103.2883 50.48036,-110.6645 -3.09444,-7.1414 -57.30636,86.479 -67.53498,103.7182 0,0 6.86733,17.3133 17.05462,6.9462 z"
         id="path4503"
         inkscape:connector-curvature="0"
         sodipodi:nodetypes="cccc" />
      <g
         id="g10723">
        <path
           sodipodi:nodetypes="cccc"
           inkscape:connector-curvature="0"
           id="path4505"
           d="m -227.14286,1533.0765 c 18.5855,25.2258 254.28571,-85 372.85714,-125 -20.71429,-45.9524 -33.63167,-207.5029 -322.14286,-122.8572 -94.31691,37.0625 -85.38238,191.8038 -50.71428,247.8572 z"
           style="fill:#eec155;fill-opacity:1;fill-rule:evenodd;stroke:none;stroke-width:1px;stroke-linecap:butt;stroke-linejoin:miter;stroke-opacity:1" />
        <path
           style="fill:#f7e3b5;fill-opacity:1;fill-rule:evenodd;stroke:none;stroke-width:1px;stroke-linecap:butt;stroke-linejoin:miter;stroke-opacity:1"
           d="m -70.897393,1243.5652 c 13.88107,28.9809 113.63695,23.7122 120.08613,19.3444 6.06589,-4.8766 -98.57484,-32.3364 -117.90849,-37.6302 0,0 -14.874,11.2105 -2.17764,18.2858 z"
           id="path4507"
           inkscape:connector-curvature="0"
           sodipodi:nodetypes="cccc" />
        <g
           id="g4509">
          <path
             style="fill:#79440a;fill-opacity:1;fill-rule:evenodd;stroke:none;stroke-width:1px;stroke-linecap:butt;stroke-linejoin:miter;stroke-opacity:1"
             d="m -218.98985,1533.199 c 26.17201,3.841 112.32317,-34.1701 168.98984,-52.2654 l -32.85714,-60 c -49.69217,20.1156 -64.72267,-66.2025 -159.65772,11.7158 -12.73993,12.8287 7.67014,97.2886 23.52502,100.5496 z"
             id="path4511"
             inkscape:connector-curvature="0"
             sodipodi:nodetypes="ccccc" />
        </g>
        <path
           style="fill:#55cc66;fill-opacity:1;fill-rule:evenodd;stroke:none;stroke-width:1px;stroke-linecap:butt;stroke-linejoin:miter;stroke-opacity:1"
           d="m -144.72087,1327.4283 c -93.5159,12.9089 -90.5602,77.2907 -114.5051,105.2272 66.1427,9.3857 132.3116,18.4044 203.135796,-37.7509 13.9223,-13.9523 9.4447,-33.3163 -5.393,-55.7275 -7.4728,-5.4594 0.9669,-10.9189 8.2624,-16.3783 0,0 8.1075,-11.3411 -29.8343,10.9853 -17.377406,-4.2488 -43.652796,-8.0388 -61.665796,-6.3557 z"
           id="path4513"
           inkscape:connector-curvature="0"
           sodipodi:nodetypes="ccccccc" />
        <path
           style="fill:#bcd422;fill-opacity:1;fill-rule:evenodd;stroke:none;stroke-width:1px;stroke-linecap:butt;stroke-linejoin:miter;stroke-opacity:1"
           d="m -176.26167,1308.9295 c 31.91301,6.2955 62.56696,16.5391 89.261954,39.1971 -20.414574,38.4328 -48.562904,55.7136 -106.806374,51.7894 -31.54774,-5.8662 -32.53913,-21.5194 -32.33601,-34.3649 5.96437,-46.5926 25.90435,-60.7817 49.88043,-56.6216 z"
           id="path4515"
           inkscape:connector-curvature="0"
           sodipodi:nodetypes="ccccc" />
        <path
           style="fill:#d62246;fill-opacity:1;fill-rule:evenodd;stroke:none;stroke-width:1px;stroke-linecap:butt;stroke-linejoin:miter;stroke-opacity:1"
           d="m -193.85291,1353.8424 c 7.10186,-3.6064 53.89837,-43.9203 54.29919,-48.5682 0.0196,-4.6615 -28.99504,-19.3731 -51.37786,-1.7692 -27.21454,23.3118 -11.00227,53.5749 -2.92133,50.3374 z"
           id="path4517"
           inkscape:connector-curvature="0"
           sodipodi:nodetypes="cccc" />
        <path
           sodipodi:nodetypes="cccc"
           inkscape:connector-curvature="0"
           id="path4519"
           d="m -49.313391,1288.4215 c -8.29194,-30.2522 -84.649669,-35.2465 -89.902409,-31.5633 -5.00089,4.2284 72.505689,42.2796 86.808699,49.5291 0,0 12.20386,-9.6252 3.09371,-17.9658 z"
           style="fill:#f7e3b5;fill-opacity:1;fill-rule:evenodd;stroke:none;stroke-width:1px;stroke-linecap:butt;stroke-linejoin:miter;stroke-opacity:1" />
        <path
           style="fill:#f7e3b5;fill-opacity:1;fill-rule:evenodd;stroke:none;stroke-width:1px;stroke-linecap:butt;stroke-linejoin:miter;stroke-opacity:1"
           d="m -193.95254,1306.3906 c 16.29299,9.9761 122.303347,-22.2419 128.947947,-26.2845 6.20983,-4.1762 -106.703047,13.5678 -127.576537,16.7391 0,0 -15.26566,9.8767 -1.37141,9.5454 z"
           id="path4521"
           inkscape:connector-curvature="0"
           sodipodi:nodetypes="cccc" />
        <path
           sodipodi:nodetypes="cccc"
           inkscape:connector-curvature="0"
           id="path4523"
           d="m -64.207412,1239.4184 c -30.124443,-11.1846 -98.174558,61.9466 -99.774468,69.5697 -0.9708,7.7222 93.341628,-45.2768 110.920058,-54.9107 0,0 2.89983,-18.3984 -11.14559,-14.659 z"
           style="fill:#f7e3b5;fill-opacity:1;fill-rule:evenodd;stroke:none;stroke-width:1px;stroke-linecap:butt;stroke-linejoin:miter;stroke-opacity:1" />
        <path
           style="fill:#f7e3b5;fill-opacity:1;fill-rule:evenodd;stroke:none;stroke-width:1px;stroke-linecap:butt;stroke-linejoin:miter;stroke-opacity:1"
           d="m 23.353632,1233.2521 c -33.997567,-7.4862 -102.546487,58.5281 -103.663106,65.0555 -0.41788,6.5705 98.640397,-44.168 117.123882,-53.4191 0,0 1.639665,-15.6922 -13.460776,-11.6364 z"
           id="path4525"
           inkscape:connector-curvature="0"
           sodipodi:nodetypes="cccc" />
        <path
           style="fill:#f7e3b5;fill-opacity:1;fill-rule:evenodd;stroke:none;stroke-width:1px;stroke-linecap:butt;stroke-linejoin:miter;stroke-opacity:1"
           d="m -106.23894,1304.5825 c -8.29193,-30.2522 -84.64966,-35.2465 -89.9024,-31.5633 -5.00089,4.2285 72.50569,42.2796 86.8087,49.5291 0,0 12.203859,-9.6252 3.0937,-17.9658 z"
           id="path4527"
           inkscape:connector-curvature="0"
           sodipodi:nodetypes="cccc" />
        <path
           style="fill:#f7e3b5;fill-opacity:1;fill-rule:evenodd;stroke:none;stroke-width:1px;stroke-linecap:butt;stroke-linejoin:miter;stroke-opacity:1"
           d="m -110.83681,1264.9015 c -31.83765,-4.3523 -82.31855,81.8491 -82.21908,89.6376 0.73511,7.7483 81.23387,-64.5267 96.290866,-77.7593 0,0 -1.17859,-18.5882 -14.071786,-11.8783 z"
           id="path4529"
           inkscape:connector-curvature="0"
           sodipodi:nodetypes="cccc" />
        <path
           sodipodi:nodetypes="ccccccc"
           inkscape:connector-curvature="0"
           id="path4531"
           d="m -139.61494,1326.3473 c -90.0697,28.2721 -76.45458,91.2672 -95.42326,122.7949 66.78268,-1.7381 133.53021,-3.8424 194.036076,-70.9879 11.409725,-16.0722 3.776021,-34.4227 -14.580147,-54.0561 -8.276239,-4.1415 -0.861317,-10.9277 5.425335,-17.5237 0,0 6.109795,-12.5309 -27.593539,15.7911 -17.841869,-1.3015 -44.381725,-0.6717 -61.864455,3.9818 z"
           style="fill:#55cc66;fill-opacity:1;fill-rule:evenodd;stroke:none;stroke-width:1px;stroke-linecap:butt;stroke-linejoin:miter;stroke-opacity:1" />
        <path
           sodipodi:nodetypes="cccc"
           inkscape:connector-curvature="0"
           id="path4533"
           d="m -213.36192,1534.5699 c 97.54506,-11.3302 330.4544,-100.148 396.14578,-139.1823 13.39353,-8.1258 -64.53495,-173.7569 -212.85714,-147.8572 -238.94479,41.5042 -129.7968,259.7734 -183.28864,287.0395 z"
           style="fill:#eec155;fill-opacity:1;fill-rule:evenodd;stroke:none;stroke-width:1px;stroke-linecap:butt;stroke-linejoin:miter;stroke-opacity:1" />
      </g>
    </g>
    <g
       transform="matrix(0.94097152,-0.33848573,0.33848573,0.94097152,687.89526,-827.9631)"
       id="g4543">
      <path
         style="fill:#eec155;fill-opacity:1;fill-rule:evenodd;stroke:none;stroke-width:1px;stroke-linecap:butt;stroke-linejoin:miter;stroke-opacity:1"
         d="m -1395.018,759.79345 c -126.6058,-50.50763 -418.6257,158.5089 -331.3301,200.01021 67.1582,22.50381 688.4588,293.16274 598.0103,220.21324 -96.4229,-76.8716 -195.6232,-367.60581 -266.6802,-420.22345 z"
         id="path4545"
         inkscape:connector-curvature="0"
         sodipodi:nodetypes="cccc" />
      <path
         style="fill:#f7e3b5;fill-opacity:1;fill-rule:evenodd;stroke:none;stroke-width:1px;stroke-linecap:butt;stroke-linejoin:miter;stroke-opacity:1"
         d="m -1372.4988,781.72095 c -116.1203,26.10898 -334.6587,145.01935 -330.0748,179.6846 2.9663,16.85612 614.0807,280.15965 588.3272,230.31475 -65.9282,-65.762 -243.3648,-409.99935 -258.2524,-409.99935 z"
         id="path4547"
         inkscape:connector-curvature="0"
         sodipodi:nodetypes="cccc" />
      <path
         style="fill:#d62246;fill-opacity:1;fill-rule:evenodd;stroke:none;stroke-width:1px;stroke-linecap:butt;stroke-linejoin:miter;stroke-opacity:1"
         d="m -1616.4286,936.64792 c 2.8012,-47.57003 124.9112,-40.79864 105.7143,28.57143 -16.3398,75.99275 -107.2483,10.93432 -105.7143,-28.57143 z"
         id="path4549"
         inkscape:connector-curvature="0"
         sodipodi:nodetypes="ccc" />
      <path
         sodipodi:nodetypes="ccc"
         inkscape:connector-curvature="0"
         id="path4551"
         d="m -1409.4145,854.26396 c 44.9861,-15.7165 85.7165,99.59926 14.3003,108.5695 -76.4297,14.15538 -51.3553,-94.78606 -14.3003,-108.5695 z"
         style="fill:#d62246;fill-opacity:1;fill-rule:evenodd;stroke:none;stroke-width:1px;stroke-linecap:butt;stroke-linejoin:miter;stroke-opacity:1" />
      <path
         style="fill:#d62246;fill-opacity:1;fill-rule:evenodd;stroke:none;stroke-width:1px;stroke-linecap:butt;stroke-linejoin:miter;stroke-opacity:1"
         d="m -1343.9401,1081.7294 c -45.6291,-13.7382 -10.7716,-130.96297 52.2695,-96.22756 70.1453,33.48926 -14.1922,106.86606 -52.2695,96.22756 z"
         id="path4553"
         inkscape:connector-curvature="0"
         sodipodi:nodetypes="ccc" />
      <path
         style="fill:#55cc66;fill-opacity:1;fill-rule:evenodd;stroke:none;stroke-width:1px;stroke-linecap:butt;stroke-linejoin:miter;stroke-opacity:1"
         d="m -1474.2857,989.50506 c -3.9049,7.83331 -4.8339,21.96644 -2.8572,25.71424 5.2134,7.4459 39.1781,24.077 42.8572,22.8572 5.9151,-2.382 4.8089,-12.1862 2.8571,-17.1429 -1.785,-4.4152 -40.5194,-35.77767 -42.8571,-31.42854 z"
         id="path4555"
         inkscape:connector-curvature="0"
         sodipodi:nodetypes="ccccc" />
      <path
         sodipodi:nodetypes="ccccc"
         inkscape:connector-curvature="0"
         id="path4557"
         d="m -1488.3751,868.11121 c 7.0583,1.53409 16.6332,8.23782 18.0238,11.44618 2.0981,7.20167 -4.7466,37.65075 -7.4323,39.38815 -4.5888,2.57587 -10.3266,-3.20111 -12.5079,-7.01791 -1.9191,-3.42981 -2.09,-44.55897 1.9164,-43.81642 z"
         style="fill:#55cc66;fill-opacity:1;fill-rule:evenodd;stroke:none;stroke-width:1px;stroke-linecap:butt;stroke-linejoin:miter;stroke-opacity:1"
         inkscape:transform-center-x="-1.4285342"
         inkscape:transform-center-y="-1.4285719" />
      <path
         inkscape:transform-center-y="-0.36779174"
         inkscape:transform-center-x="-1.7183573"
         style="fill:#55cc66;fill-opacity:1;fill-rule:evenodd;stroke:none;stroke-width:1px;stroke-linecap:butt;stroke-linejoin:miter;stroke-opacity:1"
         d="m -1303.0591,920.92873 c -6.9941,-1.80418 -18.561,-0.12288 -21.2459,2.11731 -5.1128,5.48863 -12.6935,35.7629 -11.0761,38.52254 2.94,4.3644 10.6629,1.78512 14.3278,-0.64285 3.2565,-2.20029 21.9066,-38.85835 17.9942,-39.997 z"
         id="path4559"
         inkscape:connector-curvature="0"
         sodipodi:nodetypes="ccccc" />
      <path
         sodipodi:nodetypes="ccccc"
         inkscape:connector-curvature="0"
         id="path4561"
         d="m -1239.8875,1080.5094 c -5.2027,1.6469 -11.9378,7.3586 -12.7599,9.8694 -1.0755,5.5642 6.1998,27.9928 8.3416,29.1123 3.6319,1.6174 7.545,-3.1292 8.9195,-6.1528 1.2042,-2.7143 -1.539,-33.6673 -4.5012,-32.8289 z"
         style="fill:#55cc66;fill-opacity:1;fill-rule:evenodd;stroke:none;stroke-width:1px;stroke-linecap:butt;stroke-linejoin:miter;stroke-opacity:1"
         inkscape:transform-center-x="1.2963851"
         inkscape:transform-center-y="-1.2172448" />
    </g>
    <g
       id="g4563"
       transform="translate(1534.2868,-1038.4343)">
      <path
         sodipodi:nodetypes="ccccc"
         inkscape:connector-curvature="0"
         id="path4394"
         d="m -1505.0964,1620.5822 c -59.1913,-51.4409 673.25709,-49.1637 583.24369,9.3052 -34.1556,26.1539 4.5672,52.7596 -29.6776,63.8368 -235.85479,52.0474 -325.34539,61.806 -521.99499,-7.1427 -20.2215,-10.3543 -4.4825,-41.9532 -31.5711,-65.9993 z"
         style="fill:#242f3c;fill-opacity:1;fill-rule:evenodd;stroke:none;stroke-width:1px;stroke-linecap:butt;stroke-linejoin:miter;stroke-opacity:1" />
      <path
         sodipodi:nodetypes="ccccccc"
         inkscape:connector-curvature="0"
         id="path4396"
         d="m -1208.7361,1573.6503 c -93.5159,12.9088 -90.5602,77.2906 -114.5051,105.2271 66.1427,9.3857 132.3116,18.4044 203.1358,-37.7509 13.9223,-13.9523 9.4447,-33.3163 -5.393,-55.7275 -7.4728,-5.4594 0.9669,-10.9189 8.2624,-16.3783 0,0 8.1075,-11.3411 -29.8343,10.9853 -17.3774,-4.2488 -43.6528,-8.0388 -61.6658,-6.3557 z"
         style="fill:#55cc66;fill-opacity:1;fill-rule:evenodd;stroke:none;stroke-width:1px;stroke-linecap:butt;stroke-linejoin:miter;stroke-opacity:1" />
      <path
         sodipodi:nodetypes="cccc"
         inkscape:connector-curvature="0"
         id="path4398"
         d="m -1496.9649,1598.5595 c 77.4239,49.4042 102.3954,71.9944 159.9919,59.3228 39.1455,-14.6509 11.6382,-82.3699 -16.179,-89.8831 -54.7511,-7.7567 -95.8753,20.3735 -143.8129,30.5603 z"
         style="fill:#55cc66;fill-opacity:1;fill-rule:evenodd;stroke:none;stroke-width:1px;stroke-linecap:butt;stroke-linejoin:miter;stroke-opacity:1" />
      <path
         sodipodi:nodetypes="ccccc"
         inkscape:connector-curvature="0"
         id="path4400"
         d="m -1348.8585,1574.7072 c -9.9644,30.9643 -15.8651,62.7413 -8.9884,97.0737 43.5114,0.7758 72.2713,-15.4667 97.0738,-68.3111 10.1626,-30.4367 -3.0477,-38.8921 -14.3813,-44.9416 -43.6432,-17.37 -65.7199,-6.8082 -73.7041,16.179 z"
         style="fill:#bcd422;fill-opacity:1;fill-rule:evenodd;stroke:none;stroke-width:1px;stroke-linecap:butt;stroke-linejoin:miter;stroke-opacity:1" />
      <path
         style="fill:#55cc66;fill-opacity:1;fill-rule:evenodd;stroke:none;stroke-width:1px;stroke-linecap:butt;stroke-linejoin:miter;stroke-opacity:1"
         d="m -1304.0966,1521.1045 c 94.015,8.5457 94.0567,72.9952 119.275,99.788 -65.6347,12.4515 -131.3126,24.5378 -204.6717,-28.2629 -14.5561,-13.2898 -10.984,-32.8411 2.7954,-55.918 7.2108,-5.8011 -1.4736,-10.8622 -9.0151,-15.9764 0,0 -8.6262,-10.9518 30.3129,9.586 17.161,-5.0524 43.2317,-10.0603 61.3035,-9.2167 z"
         id="path4410"
         inkscape:connector-curvature="0"
         sodipodi:nodetypes="ccccccc" />
      <path
         style="fill:#55cc66;fill-opacity:1;fill-rule:evenodd;stroke:none;stroke-width:1px;stroke-linecap:butt;stroke-linejoin:miter;stroke-opacity:1"
         d="m -1463.8275,1530.2114 c 34.8027,68.0675 43.2259,94.8009 89.92,109.9456 34.2776,5.9567 43.0295,-54.2513 26.2164,-71.3556 -36.0519,-28.6166 -77.4242,-25.7267 -116.1364,-38.59 z"
         id="path4412"
         inkscape:connector-curvature="0"
         sodipodi:nodetypes="cccc" />
      <path
         style="fill:#bcd422;fill-opacity:1;fill-rule:evenodd;stroke:none;stroke-width:1px;stroke-linecap:butt;stroke-linejoin:miter;stroke-opacity:1"
         d="m -1203.7697,1512.5844 c -38.121,8.2155 -74.6499,21.137 -106.173,48.8564 25.2764,45.6399 59.3792,65.7633 129.1113,59.8378 37.6921,-7.6932 38.5522,-26.477 38.0393,-41.8702 -8.1266,-55.7238 -32.3255,-72.3136 -60.9776,-66.824 z"
         id="path4414"
         inkscape:connector-curvature="0"
         sodipodi:nodetypes="ccccc" />
      <path
         sodipodi:nodetypes="ccccccc"
         inkscape:connector-curvature="0"
         id="path4416"
         d="m -1037.5772,1557.3104 c -93.5159,12.9087 -90.5602,77.2905 -114.5051,105.227 66.1427,9.3857 132.3116,18.4044 203.13579,-37.7509 13.9223,-13.9523 9.4447,-33.3163 -5.393,-55.7275 -7.4728,-5.4594 0.9669,-10.9189 8.2624,-16.3783 0,0 8.1074,-11.3411 -29.8344,10.9853 -17.3774,-4.2488 -43.65269,-8.0388 -61.66569,-6.3556 z"
         style="fill:#55cc66;fill-opacity:1;fill-rule:evenodd;stroke:none;stroke-width:1px;stroke-linecap:butt;stroke-linejoin:miter;stroke-opacity:1" />
      <path
         sodipodi:nodetypes="cccc"
         inkscape:connector-curvature="0"
         id="path4418"
         d="m -1230.5075,1648.7491 c 89.2333,-21.7409 122.8203,-24.1491 153.5089,-74.5092 16.4965,-38.4042 -51.4358,-65.3805 -76.1029,-50.4884 -43.4733,34.1749 -51.604,83.3318 -77.406,124.9976 z"
         style="fill:#55cc66;fill-opacity:1;fill-rule:evenodd;stroke:none;stroke-width:1px;stroke-linecap:butt;stroke-linejoin:miter;stroke-opacity:1" />
      <path
         sodipodi:nodetypes="ccccc"
         inkscape:connector-curvature="0"
         id="path4420"
         d="m -1012.4362,1609.3993 c 26.07899,-19.4412 49.31949,-41.9017 63.63479,-73.8561 -34.9916,-25.8732 -67.84009,-29.3271 -118.69829,-0.6715 -25.9345,18.8964 -20.0792,33.4471 -14.3569,44.9494 25.4724,39.4664 49.5818,43.6704 69.4204,29.5782 z"
         style="fill:#bcd422;fill-opacity:1;fill-rule:evenodd;stroke:none;stroke-width:1px;stroke-linecap:butt;stroke-linejoin:miter;stroke-opacity:1" />
      <path
         sodipodi:nodetypes="cccc"
         inkscape:connector-curvature="0"
         id="path4422"
         d="m -1389.6899,1563.7338 c 22.1445,-4.6453 47.4503,19.1106 48.3735,28.3753 -4.272,3.9329 -55.2841,21.9631 -61.7534,21.526 -9.3181,-10.7436 2.1857,-46.4266 13.3799,-49.9013 z"
         style="fill:#870058;fill-opacity:1;fill-rule:evenodd;stroke:none;stroke-width:1px;stroke-linecap:butt;stroke-linejoin:miter;stroke-opacity:1" />
      <path
         sodipodi:nodetypes="cccc"
         inkscape:connector-curvature="0"
         id="path4424"
         d="m -1179.6076,1584.9313 c 9.7049,8.4183 98.3802,53.8294 105.568,51.603 6.9764,-2.8041 11.3196,-55.0954 -28.5865,-77.8357 -51.3709,-26.4895 -86.7304,16.1274 -76.9815,26.2327 z"
         style="fill:#d62246;fill-opacity:1;fill-rule:evenodd;stroke:none;stroke-width:1px;stroke-linecap:butt;stroke-linejoin:miter;stroke-opacity:1" />
      <path
         sodipodi:nodetypes="ccccccccccccccc"
         inkscape:connector-curvature="0"
         id="path4426"
         d="m -1256.0019,1260.033 c -9.8968,1.7711 -16.5275,8.9098 -18.6879,17.2264 -3.8616,32.4404 3.7364,-9.0407 20.5602,188.0796 -17.1482,2.9449 -26.1268,7.4523 -27.1262,13.6984 -4.2654,51.2506 10.3111,76.8895 11.8059,96.6735 5.547,-0.9597 -1.5442,-48.4822 6.8259,-66.1449 5.5913,16.8598 5.8482,46.519 6.6221,65.9409 4.8033,-0.2866 0.7718,-49.2534 7.8107,-65.3185 5.6988,14.1929 4.4232,44.6459 6.5607,64.9001 4.3592,-0.4133 2.3595,-51.4598 6.3621,-64.3644 7.3206,14.8546 5.2845,44.2304 6.3567,64.5124 4.7818,-0.8071 10.1535,-60.9738 11.0505,-99.4283 -1.4048,-6.9888 -13.2037,-10.6412 -26.524,-10.913 -0.6304,-189.8319 9.0216,-159.839 4.5457,-187.6358 -2.1516,-11.5866 -8.6996,-15.573 -16.1624,-17.2264 z"
         style="fill:#e3e3f7;fill-opacity:1;fill-rule:evenodd;stroke:none;stroke-width:1px;stroke-linecap:butt;stroke-linejoin:miter;stroke-opacity:1" />
    </g>
  </g>
</svg>
