<?xml version="1.0" encoding="UTF-8" standalone="no"?>
<svg
   xmlns:dc="http://purl.org/dc/elements/1.1/"
   xmlns:cc="http://creativecommons.org/ns#"
   xmlns:rdf="http://www.w3.org/1999/02/22-rdf-syntax-ns#"
   xmlns:svg="http://www.w3.org/2000/svg"
   xmlns="http://www.w3.org/2000/svg"
   xmlns:sodipodi="http://sodipodi.sourceforge.net/DTD/sodipodi-0.dtd"
   xmlns:inkscape="http://www.inkscape.org/namespaces/inkscape"
   version="1.1"
   id="svg2"
   viewBox="0 0 681.21009 327.29972"
   height="92.371254mm"
   width="192.25262mm"
   inkscape:version="0.91 r13725"
   sodipodi:docname="pizza.svg">
  <sodipodi:namedview
     pagecolor="#ffffff"
     bordercolor="#666666"
     borderopacity="1"
     objecttolerance="10"
     gridtolerance="10"
     guidetolerance="10"
     inkscape:pageopacity="0"
     inkscape:pageshadow="2"
     inkscape:window-width="1920"
     inkscape:window-height="1057"
     id="namedview12450"
     showgrid="false"
     inkscape:zoom="0.45066861"
     inkscape:cx="261.83319"
     inkscape:cy="163.64986"
     inkscape:window-x="-8"
     inkscape:window-y="-8"
     inkscape:window-maximized="1"
     inkscape:current-layer="svg2" />
  <defs
     id="defs4" />
  <metadata
     id="metadata7">
    <rdf:RDF>
      <cc:Work
         rdf:about="">
        <dc:format>image/svg+xml</dc:format>
        <dc:type
           rdf:resource="http://purl.org/dc/dcmitype/StillImage" />
        <dc:title></dc:title>
      </cc:Work>
    </rdf:RDF>
  </metadata>
  <g
     transform="matrix(0.94097152,-0.33848573,0.33848573,0.94097152,1324.4719,-1187.0829)"
     id="g4543">
    <path
       inkscape:connector-curvature="0"
       style="fill:#eec155;fill-opacity:1;fill-rule:evenodd;stroke:none;stroke-width:1px;stroke-linecap:butt;stroke-linejoin:miter;stroke-opacity:1"
       d="m -1395.018,759.79345 c -126.6058,-50.50763 -418.6257,158.5089 -331.3301,200.01021 67.1582,22.50381 688.4588,293.16274 598.0103,220.21324 -96.4229,-76.8716 -195.6232,-367.60581 -266.6802,-420.22345 z"
       id="path4545" />
    <path
       inkscape:connector-curvature="0"
       style="fill:#f7e3b5;fill-opacity:1;fill-rule:evenodd;stroke:none;stroke-width:1px;stroke-linecap:butt;stroke-linejoin:miter;stroke-opacity:1"
       d="m -1372.4988,781.72095 c -116.1203,26.10898 -334.6587,145.01935 -330.0748,179.6846 2.9663,16.85612 614.0807,280.15965 588.3272,230.31475 -65.9282,-65.762 -243.3648,-409.99935 -258.2524,-409.99935 z"
       id="path4547" />
    <path
       inkscape:connector-curvature="0"
       style="fill:#d62246;fill-opacity:1;fill-rule:evenodd;stroke:none;stroke-width:1px;stroke-linecap:butt;stroke-linejoin:miter;stroke-opacity:1"
       d="m -1616.4286,936.64792 c 2.8012,-47.57003 124.9112,-40.79864 105.7143,28.57143 -16.3398,75.99275 -107.2483,10.93432 -105.7143,-28.57143 z"
       id="path4549" />
    <path
       inkscape:connector-curvature="0"
       id="path4551"
       d="m -1409.4145,854.26396 c 44.9861,-15.7165 85.7165,99.59926 14.3003,108.5695 -76.4297,14.15538 -51.3553,-94.78606 -14.3003,-108.5695 z"
       style="fill:#d62246;fill-opacity:1;fill-rule:evenodd;stroke:none;stroke-width:1px;stroke-linecap:butt;stroke-linejoin:miter;stroke-opacity:1" />
    <path
       inkscape:connector-curvature="0"
       style="fill:#d62246;fill-opacity:1;fill-rule:evenodd;stroke:none;stroke-width:1px;stroke-linecap:butt;stroke-linejoin:miter;stroke-opacity:1"
       d="m -1343.9401,1081.7294 c -45.6291,-13.7382 -10.7716,-130.96297 52.2695,-96.22756 70.1453,33.48926 -14.1922,106.86606 -52.2695,96.22756 z"
       id="path4553" />
    <path
       inkscape:connector-curvature="0"
       style="fill:#55cc66;fill-opacity:1;fill-rule:evenodd;stroke:none;stroke-width:1px;stroke-linecap:butt;stroke-linejoin:miter;stroke-opacity:1"
       d="m -1474.2857,989.50506 c -3.9049,7.83331 -4.8339,21.96644 -2.8572,25.71424 5.2134,7.4459 39.1781,24.077 42.8572,22.8572 5.9151,-2.382 4.8089,-12.1862 2.8571,-17.1429 -1.785,-4.4152 -40.5194,-35.77767 -42.8571,-31.42854 z"
       id="path4555" />
    <path
       inkscape:connector-curvature="0"
       id="path4557"
       d="m -1488.3751,868.11121 c 7.0583,1.53409 16.6332,8.23782 18.0238,11.44618 2.0981,7.20167 -4.7466,37.65075 -7.4323,39.38815 -4.5888,2.57587 -10.3266,-3.20111 -12.5079,-7.01791 -1.9191,-3.42981 -2.09,-44.55897 1.9164,-43.81642 z"
       style="fill:#55cc66;fill-opacity:1;fill-rule:evenodd;stroke:none;stroke-width:1px;stroke-linecap:butt;stroke-linejoin:miter;stroke-opacity:1" />
    <path
       inkscape:connector-curvature="0"
       style="fill:#55cc66;fill-opacity:1;fill-rule:evenodd;stroke:none;stroke-width:1px;stroke-linecap:butt;stroke-linejoin:miter;stroke-opacity:1"
       d="m -1303.0591,920.92873 c -6.9941,-1.80418 -18.561,-0.12288 -21.2459,2.11731 -5.1128,5.48863 -12.6935,35.7629 -11.0761,38.52254 2.94,4.3644 10.6629,1.78512 14.3278,-0.64285 3.2565,-2.20029 21.9066,-38.85835 17.9942,-39.997 z"
       id="path4559" />
    <path
       inkscape:connector-curvature="0"
       id="path4561"
       d="m -1239.8875,1080.5094 c -5.2027,1.6469 -11.9378,7.3586 -12.7599,9.8694 -1.0755,5.5642 6.1998,27.9928 8.3416,29.1123 3.6319,1.6174 7.545,-3.1292 8.9195,-6.1528 1.2042,-2.7143 -1.539,-33.6673 -4.5012,-32.8289 z"
       style="fill:#55cc66;fill-opacity:1;fill-rule:evenodd;stroke:none;stroke-width:1px;stroke-linecap:butt;stroke-linejoin:miter;stroke-opacity:1" />
  </g>
</svg>
