<?xml version="1.0" encoding="UTF-8" standalone="no"?>
<svg
   xmlns:dc="http://purl.org/dc/elements/1.1/"
   xmlns:cc="http://creativecommons.org/ns#"
   xmlns:rdf="http://www.w3.org/1999/02/22-rdf-syntax-ns#"
   xmlns:svg="http://www.w3.org/2000/svg"
   xmlns="http://www.w3.org/2000/svg"
   xmlns:sodipodi="http://sodipodi.sourceforge.net/DTD/sodipodi-0.dtd"
   xmlns:inkscape="http://www.inkscape.org/namespaces/inkscape"
   version="1.1"
   id="svg2"
   viewBox="0 0 594.32954 475.49866"
   height="134.19629mm"
   width="167.733mm"
   inkscape:version="0.91 r13725"
   sodipodi:docname="salad.svg">
  <sodipodi:namedview
     pagecolor="#ffffff"
     bordercolor="#666666"
     borderopacity="1"
     objecttolerance="10"
     gridtolerance="10"
     guidetolerance="10"
     inkscape:pageopacity="0"
     inkscape:pageshadow="2"
     inkscape:window-width="1920"
     inkscape:window-height="1057"
     id="namedview13283"
     showgrid="false"
     inkscape:zoom="0.70190397"
     inkscape:cx="160.85287"
     inkscape:cy="107.5915"
     inkscape:window-x="-8"
     inkscape:window-y="-8"
     inkscape:window-maximized="1"
     inkscape:current-layer="svg2" />
  <defs
     id="defs4" />
  <metadata
     id="metadata7">
    <rdf:RDF>
      <cc:Work
         rdf:about="">
        <dc:format>image/svg+xml</dc:format>
        <dc:type
           rdf:resource="http://purl.org/dc/dcmitype/StillImage" />
        <dc:title></dc:title>
      </cc:Work>
    </rdf:RDF>
  </metadata>
  <g
     id="g4563"
     transform="translate(1508.5053,-1260.033)">
    <path
       inkscape:connector-curvature="0"
       id="path4394"
       d="m -1505.0964,1620.5822 c -59.1913,-51.4409 673.25709,-49.1637 583.24369,9.3052 -34.1556,26.1539 4.5672,52.7596 -29.6776,63.8368 -235.85479,52.0474 -325.34539,61.806 -521.99499,-7.1427 -20.2215,-10.3543 -4.4825,-41.9532 -31.5711,-65.9993 z"
       style="fill:#242f3c;fill-opacity:1;fill-rule:evenodd;stroke:none;stroke-width:1px;stroke-linecap:butt;stroke-linejoin:miter;stroke-opacity:1" />
    <path
       inkscape:connector-curvature="0"
       id="path4396"
       d="m -1208.7361,1573.6503 c -93.5159,12.9088 -90.5602,77.2906 -114.5051,105.2271 66.1427,9.3857 132.3116,18.4044 203.1358,-37.7509 13.9223,-13.9523 9.4447,-33.3163 -5.393,-55.7275 -7.4728,-5.4594 0.9669,-10.9189 8.2624,-16.3783 0,0 8.1075,-11.3411 -29.8343,10.9853 -17.3774,-4.2488 -43.6528,-8.0388 -61.6658,-6.3557 z"
       style="fill:#55cc66;fill-opacity:1;fill-rule:evenodd;stroke:none;stroke-width:1px;stroke-linecap:butt;stroke-linejoin:miter;stroke-opacity:1" />
    <path
       inkscape:connector-curvature="0"
       id="path4398"
       d="m -1496.9649,1598.5595 c 77.4239,49.4042 102.3954,71.9944 159.9919,59.3228 39.1455,-14.6509 11.6382,-82.3699 -16.179,-89.8831 -54.7511,-7.7567 -95.8753,20.3735 -143.8129,30.5603 z"
       style="fill:#55cc66;fill-opacity:1;fill-rule:evenodd;stroke:none;stroke-width:1px;stroke-linecap:butt;stroke-linejoin:miter;stroke-opacity:1" />
    <path
       inkscape:connector-curvature="0"
       id="path4400"
       d="m -1348.8585,1574.7072 c -9.9644,30.9643 -15.8651,62.7413 -8.9884,97.0737 43.5114,0.7758 72.2713,-15.4667 97.0738,-68.3111 10.1626,-30.4367 -3.0477,-38.8921 -14.3813,-44.9416 -43.6432,-17.37 -65.7199,-6.8082 -73.7041,16.179 z"
       style="fill:#bcd422;fill-opacity:1;fill-rule:evenodd;stroke:none;stroke-width:1px;stroke-linecap:butt;stroke-linejoin:miter;stroke-opacity:1" />
    <path
       inkscape:connector-curvature="0"
       style="fill:#55cc66;fill-opacity:1;fill-rule:evenodd;stroke:none;stroke-width:1px;stroke-linecap:butt;stroke-linejoin:miter;stroke-opacity:1"
       d="m -1304.0966,1521.1045 c 94.015,8.5457 94.0567,72.9952 119.275,99.788 -65.6347,12.4515 -131.3126,24.5378 -204.6717,-28.2629 -14.5561,-13.2898 -10.984,-32.8411 2.7954,-55.918 7.2108,-5.8011 -1.4736,-10.8622 -9.0151,-15.9764 0,0 -8.6262,-10.9518 30.3129,9.586 17.161,-5.0524 43.2317,-10.0603 61.3035,-9.2167 z"
       id="path4410" />
    <path
       inkscape:connector-curvature="0"
       style="fill:#55cc66;fill-opacity:1;fill-rule:evenodd;stroke:none;stroke-width:1px;stroke-linecap:butt;stroke-linejoin:miter;stroke-opacity:1"
       d="m -1463.8275,1530.2114 c 34.8027,68.0675 43.2259,94.8009 89.92,109.9456 34.2776,5.9567 43.0295,-54.2513 26.2164,-71.3556 -36.0519,-28.6166 -77.4242,-25.7267 -116.1364,-38.59 z"
       id="path4412" />
    <path
       inkscape:connector-curvature="0"
       style="fill:#bcd422;fill-opacity:1;fill-rule:evenodd;stroke:none;stroke-width:1px;stroke-linecap:butt;stroke-linejoin:miter;stroke-opacity:1"
       d="m -1203.7697,1512.5844 c -38.121,8.2155 -74.6499,21.137 -106.173,48.8564 25.2764,45.6399 59.3792,65.7633 129.1113,59.8378 37.6921,-7.6932 38.5522,-26.477 38.0393,-41.8702 -8.1266,-55.7238 -32.3255,-72.3136 -60.9776,-66.824 z"
       id="path4414" />
    <path
       inkscape:connector-curvature="0"
       id="path4416"
       d="m -1037.5772,1557.3104 c -93.5159,12.9087 -90.5602,77.2905 -114.5051,105.227 66.1427,9.3857 132.3116,18.4044 203.13579,-37.7509 13.9223,-13.9523 9.4447,-33.3163 -5.393,-55.7275 -7.4728,-5.4594 0.9669,-10.9189 8.2624,-16.3783 0,0 8.1074,-11.3411 -29.8344,10.9853 -17.3774,-4.2488 -43.65269,-8.0388 -61.66569,-6.3556 z"
       style="fill:#55cc66;fill-opacity:1;fill-rule:evenodd;stroke:none;stroke-width:1px;stroke-linecap:butt;stroke-linejoin:miter;stroke-opacity:1" />
    <path
       inkscape:connector-curvature="0"
       id="path4418"
       d="m -1230.5075,1648.7491 c 89.2333,-21.7409 122.8203,-24.1491 153.5089,-74.5092 16.4965,-38.4042 -51.4358,-65.3805 -76.1029,-50.4884 -43.4733,34.1749 -51.604,83.3318 -77.406,124.9976 z"
       style="fill:#55cc66;fill-opacity:1;fill-rule:evenodd;stroke:none;stroke-width:1px;stroke-linecap:butt;stroke-linejoin:miter;stroke-opacity:1" />
    <path
       inkscape:connector-curvature="0"
       id="path4420"
       d="m -1012.4362,1609.3993 c 26.07899,-19.4412 49.31949,-41.9017 63.63479,-73.8561 -34.9916,-25.8732 -67.84009,-29.3271 -118.69829,-0.6715 -25.9345,18.8964 -20.0792,33.4471 -14.3569,44.9494 25.4724,39.4664 49.5818,43.6704 69.4204,29.5782 z"
       style="fill:#bcd422;fill-opacity:1;fill-rule:evenodd;stroke:none;stroke-width:1px;stroke-linecap:butt;stroke-linejoin:miter;stroke-opacity:1" />
    <path
       inkscape:connector-curvature="0"
       id="path4422"
       d="m -1389.6899,1563.7338 c 22.1445,-4.6453 47.4503,19.1106 48.3735,28.3753 -4.272,3.9329 -55.2841,21.9631 -61.7534,21.526 -9.3181,-10.7436 2.1857,-46.4266 13.3799,-49.9013 z"
       style="fill:#870058;fill-opacity:1;fill-rule:evenodd;stroke:none;stroke-width:1px;stroke-linecap:butt;stroke-linejoin:miter;stroke-opacity:1" />
    <path
       inkscape:connector-curvature="0"
       id="path4424"
       d="m -1179.6076,1584.9313 c 9.7049,8.4183 98.3802,53.8294 105.568,51.603 6.9764,-2.8041 11.3196,-55.0954 -28.5865,-77.8357 -51.3709,-26.4895 -86.7304,16.1274 -76.9815,26.2327 z"
       style="fill:#d62246;fill-opacity:1;fill-rule:evenodd;stroke:none;stroke-width:1px;stroke-linecap:butt;stroke-linejoin:miter;stroke-opacity:1" />
    <path
       inkscape:connector-curvature="0"
       id="path4426"
       d="m -1256.0019,1260.033 c -9.8968,1.7711 -16.5275,8.9098 -18.6879,17.2264 -3.8616,32.4404 3.7364,-9.0407 20.5602,188.0796 -17.1482,2.9449 -26.1268,7.4523 -27.1262,13.6984 -4.2654,51.2506 10.3111,76.8895 11.8059,96.6735 5.547,-0.9597 -1.5442,-48.4822 6.8259,-66.1449 5.5913,16.8598 5.8482,46.519 6.6221,65.9409 4.8033,-0.2866 0.7718,-49.2534 7.8107,-65.3185 5.6988,14.1929 4.4232,44.6459 6.5607,64.9001 4.3592,-0.4133 2.3595,-51.4598 6.3621,-64.3644 7.3206,14.8546 5.2845,44.2304 6.3567,64.5124 4.7818,-0.8071 10.1535,-60.9738 11.0505,-99.4283 -1.4048,-6.9888 -13.2037,-10.6412 -26.524,-10.913 -0.6304,-189.8319 9.0216,-159.839 4.5457,-187.6358 -2.1516,-11.5866 -8.6996,-15.573 -16.1624,-17.2264 z"
       style="fill:#e3e3f7;fill-opacity:1;fill-rule:evenodd;stroke:none;stroke-width:1px;stroke-linecap:butt;stroke-linejoin:miter;stroke-opacity:1" />
  </g>
</svg>
