<?xml version="1.0" encoding="UTF-8" standalone="no"?>
<svg
   xmlns:dc="http://purl.org/dc/elements/1.1/"
   xmlns:cc="http://creativecommons.org/ns#"
   xmlns:rdf="http://www.w3.org/1999/02/22-rdf-syntax-ns#"
   xmlns:svg="http://www.w3.org/2000/svg"
   xmlns="http://www.w3.org/2000/svg"
   version="1.1"
   id="svg5658"
   viewBox="0 0 312.93153 272.23307"
   height="76.830223mm"
   width="88.316231mm">
  <defs
     id="defs5660" />
  <metadata
     id="metadata5663">
    <rdf:RDF>
      <cc:Work
         rdf:about="">
        <dc:format>image/svg+xml</dc:format>
        <dc:type
           rdf:resource="http://purl.org/dc/dcmitype/StillImage" />
        <dc:title></dc:title>
      </cc:Work>
    </rdf:RDF>
  </metadata>
  <g
     transform="translate(-13.012249,-33.388535)"
     id="layer1">
    <g
       transform="matrix(1.4822533,0,0,1.4822533,-13137.613,-632.2654)"
       id="g10618">
      <g
         transform="matrix(0.30277677,0,0,0.30277677,9640.1969,192.83648)"
         id="g10610">
        <path
           style="fill:#22d4d4;fill-opacity:1;fill-rule:evenodd;stroke:none;stroke-width:1px;stroke-linecap:butt;stroke-linejoin:miter;stroke-opacity:1"
           d="m -2525.5938,1022.495 c 1.5593,129.6331 41.5823,390.3944 50.8928,395.8699 57.8055,28.3292 118.1159,16.9864 178.6443,2.1932 7.4139,-2.078 27.1892,-268.1243 39.4679,-401.3528 z"
           id="path10612" />
        <path
           style="fill:#e3e3f7;fill-opacity:1;fill-rule:evenodd;stroke:none;stroke-width:1px;stroke-linecap:butt;stroke-linejoin:miter;stroke-opacity:1"
           d="m -2400.6522,978.60619 c -59.2956,1.02578 -109.9414,16.46904 -129.3841,32.92291 -4.449,5.3667 -7.6403,12.2978 -6.8513,20.0455 1.9585,30.7432 291.0778,24.5966 288.6078,-6.8864 -0.7997,-7.8222 -2.4847,-14.8191 -7.5468,-18.6672 -33.2893,-14.89013 -68.5033,-28.93592 -144.8256,-27.41481 z"
           id="path10614" />
        <path
           style="fill:#d62246;fill-opacity:1;fill-rule:evenodd;stroke:none;stroke-width:1px;stroke-linecap:butt;stroke-linejoin:miter;stroke-opacity:1"
           d="m -2403.1616,1008.2393 c -0.1608,-38.39053 -2.8631,-93.67835 -0.4824,-115.17166 1.6445,-10.76109 40.0425,-45.79246 44.6611,-46.60518 12.3848,-2.18424 103.2317,21.34858 104.7336,26.67698 1.9078,9.80375 -1.8529,15.61388 -6.1756,18.1086 -33.1704,-7.88712 -70.0715,-23.84843 -94.4808,-22.69181 -8.9148,7.03647 -18.583,15.74334 -27.4185,29.80119 l -1.6512,110.43018 c -4.8358,1.4301 -13.4246,4.6196 -19.1862,-0.5483 z"
           id="path10616" />
      </g>
      <g
         transform="matrix(0.35246154,0,0,0.35246154,9018.2222,91.08591)"
         id="g10576">
        <path
           style="fill:#f7e3b5;fill-opacity:1;fill-rule:evenodd;stroke:none;stroke-width:1px;stroke-linecap:butt;stroke-linejoin:miter;stroke-opacity:1"
           d="m -65.082985,1323.0817 c 31.62354,-5.7035 52.98275,-103.2883 50.48036,-110.6645 -3.09444,-7.1414 -57.30636,86.479 -67.53498,103.7182 0,0 6.86733,17.3133 17.05462,6.9462 z"
           id="path10578" />
        <path
           style="fill:#eec155;fill-opacity:1;fill-rule:evenodd;stroke:none;stroke-width:1px;stroke-linecap:butt;stroke-linejoin:miter;stroke-opacity:1"
           d="m -227.14286,1533.0765 c 18.5855,25.2258 254.28571,-85 372.85714,-125 -20.71429,-45.9524 -33.63167,-207.5029 -322.14286,-122.8572 -94.31691,37.0625 -85.38238,191.8038 -50.71428,247.8572 z"
           id="path10580" />
        <path
           id="path10582"
           d="m -70.897393,1243.5652 c 13.88107,28.9809 113.63695,23.7122 120.08613,19.3444 6.06589,-4.8766 -98.57484,-32.3364 -117.90849,-37.6302 0,0 -14.874,11.2105 -2.17764,18.2858 z"
           style="fill:#f7e3b5;fill-opacity:1;fill-rule:evenodd;stroke:none;stroke-width:1px;stroke-linecap:butt;stroke-linejoin:miter;stroke-opacity:1" />
        <g
           id="g10584">
          <path
             id="path10586"
             d="m -218.98985,1533.199 c 26.17201,3.841 112.32317,-34.1701 168.98984,-52.2654 l -32.85714,-60 c -49.69217,20.1156 -64.72267,-66.2025 -159.65772,11.7158 -12.73993,12.8287 7.67014,97.2886 23.52502,100.5496 z"
             style="fill:#79440a;fill-opacity:1;fill-rule:evenodd;stroke:none;stroke-width:1px;stroke-linecap:butt;stroke-linejoin:miter;stroke-opacity:1" />
        </g>
        <path
           id="path10588"
           d="m -144.72087,1327.4283 c -93.5159,12.9089 -90.5602,77.2907 -114.5051,105.2272 66.1427,9.3857 132.3116,18.4044 203.135796,-37.7509 13.9223,-13.9523 9.4447,-33.3163 -5.393,-55.7275 -7.4728,-5.4594 0.9669,-10.9189 8.2624,-16.3783 0,0 8.1075,-11.3411 -29.8343,10.9853 -17.377406,-4.2488 -43.652796,-8.0388 -61.665796,-6.3557 z"
           style="fill:#55cc66;fill-opacity:1;fill-rule:evenodd;stroke:none;stroke-width:1px;stroke-linecap:butt;stroke-linejoin:miter;stroke-opacity:1" />
        <path
           id="path10590"
           d="m -176.26167,1308.9295 c 31.91301,6.2955 62.56696,16.5391 89.261954,39.1971 -20.414574,38.4328 -48.562904,55.7136 -106.806374,51.7894 -31.54774,-5.8662 -32.53913,-21.5194 -32.33601,-34.3649 5.96437,-46.5926 25.90435,-60.7817 49.88043,-56.6216 z"
           style="fill:#bcd422;fill-opacity:1;fill-rule:evenodd;stroke:none;stroke-width:1px;stroke-linecap:butt;stroke-linejoin:miter;stroke-opacity:1" />
        <path
           id="path10592"
           d="m -193.85291,1353.8424 c 7.10186,-3.6064 53.89837,-43.9203 54.29919,-48.5682 0.0196,-4.6615 -28.99504,-19.3731 -51.37786,-1.7692 -27.21454,23.3118 -11.00227,53.5749 -2.92133,50.3374 z"
           style="fill:#d62246;fill-opacity:1;fill-rule:evenodd;stroke:none;stroke-width:1px;stroke-linecap:butt;stroke-linejoin:miter;stroke-opacity:1" />
        <path
           style="fill:#f7e3b5;fill-opacity:1;fill-rule:evenodd;stroke:none;stroke-width:1px;stroke-linecap:butt;stroke-linejoin:miter;stroke-opacity:1"
           d="m -49.313391,1288.4215 c -8.29194,-30.2522 -84.649669,-35.2465 -89.902409,-31.5633 -5.00089,4.2284 72.505689,42.2796 86.808699,49.5291 0,0 12.20386,-9.6252 3.09371,-17.9658 z"
           id="path10594" />
        <path
           id="path10596"
           d="m -193.95254,1306.3906 c 16.29299,9.9761 122.303347,-22.2419 128.947947,-26.2845 6.20983,-4.1762 -106.703047,13.5678 -127.576537,16.7391 0,0 -15.26566,9.8767 -1.37141,9.5454 z"
           style="fill:#f7e3b5;fill-opacity:1;fill-rule:evenodd;stroke:none;stroke-width:1px;stroke-linecap:butt;stroke-linejoin:miter;stroke-opacity:1" />
        <path
           style="fill:#f7e3b5;fill-opacity:1;fill-rule:evenodd;stroke:none;stroke-width:1px;stroke-linecap:butt;stroke-linejoin:miter;stroke-opacity:1"
           d="m -64.207412,1239.4184 c -30.124443,-11.1846 -98.174558,61.9466 -99.774468,69.5697 -0.9708,7.7222 93.341628,-45.2768 110.920058,-54.9107 0,0 2.89983,-18.3984 -11.14559,-14.659 z"
           id="path10598" />
        <path
           id="path10600"
           d="m 23.353632,1233.2521 c -33.997567,-7.4862 -102.546487,58.5281 -103.663106,65.0555 -0.41788,6.5705 98.640397,-44.168 117.123882,-53.4191 0,0 1.639665,-15.6922 -13.460776,-11.6364 z"
           style="fill:#f7e3b5;fill-opacity:1;fill-rule:evenodd;stroke:none;stroke-width:1px;stroke-linecap:butt;stroke-linejoin:miter;stroke-opacity:1" />
        <path
           id="path10602"
           d="m -106.23894,1304.5825 c -8.29193,-30.2522 -84.64966,-35.2465 -89.9024,-31.5633 -5.00089,4.2285 72.50569,42.2796 86.8087,49.5291 0,0 12.203859,-9.6252 3.0937,-17.9658 z"
           style="fill:#f7e3b5;fill-opacity:1;fill-rule:evenodd;stroke:none;stroke-width:1px;stroke-linecap:butt;stroke-linejoin:miter;stroke-opacity:1" />
        <path
           id="path10604"
           d="m -110.83681,1264.9015 c -31.83765,-4.3523 -82.31855,81.8491 -82.21908,89.6376 0.73511,7.7483 81.23387,-64.5267 96.290866,-77.7593 0,0 -1.17859,-18.5882 -14.071786,-11.8783 z"
           style="fill:#f7e3b5;fill-opacity:1;fill-rule:evenodd;stroke:none;stroke-width:1px;stroke-linecap:butt;stroke-linejoin:miter;stroke-opacity:1" />
        <path
           style="fill:#55cc66;fill-opacity:1;fill-rule:evenodd;stroke:none;stroke-width:1px;stroke-linecap:butt;stroke-linejoin:miter;stroke-opacity:1"
           d="m -139.61494,1326.3473 c -90.0697,28.2721 -76.45458,91.2672 -95.42326,122.7949 66.78268,-1.7381 133.53021,-3.8424 194.036076,-70.9879 11.409725,-16.0722 3.776021,-34.4227 -14.580147,-54.0561 -8.276239,-4.1415 -0.861317,-10.9277 5.425335,-17.5237 0,0 6.109795,-12.5309 -27.593539,15.7911 -17.841869,-1.3015 -44.381725,-0.6717 -61.864455,3.9818 z"
           id="path10606" />
        <path
           style="fill:#eec155;fill-opacity:1;fill-rule:evenodd;stroke:none;stroke-width:1px;stroke-linecap:butt;stroke-linejoin:miter;stroke-opacity:1"
           d="m -213.36192,1534.5699 c 97.54506,-11.3302 330.4544,-100.148 396.14578,-139.1823 13.39353,-8.1258 -64.53495,-173.7569 -212.85714,-147.8572 -238.94479,41.5042 -129.7968,259.7734 -183.28864,287.0395 z"
           id="path10608" />
      </g>
    </g>
  </g>
</svg>
