<?xml version="1.0" encoding="UTF-8" standalone="no"?>
<!-- Created with Inkscape (http://www.inkscape.org/) -->

<svg
   xmlns:dc="http://purl.org/dc/elements/1.1/"
   xmlns:cc="http://creativecommons.org/ns#"
   xmlns:rdf="http://www.w3.org/1999/02/22-rdf-syntax-ns#"
   xmlns:svg="http://www.w3.org/2000/svg"
   xmlns="http://www.w3.org/2000/svg"
   xmlns:sodipodi="http://sodipodi.sourceforge.net/DTD/sodipodi-0.dtd"
   xmlns:inkscape="http://www.inkscape.org/namespaces/inkscape"
   width="192.44757mm"
   height="84.994141mm"
   viewBox="0 0 681.90084 301.16034"
   id="svg2"
   version="1.1"
   inkscape:version="0.91 r13725"
   sodipodi:docname="wrap.svg">
  <defs
     id="defs4" />
  <sodipodi:namedview
     id="base"
     pagecolor="#ffffff"
     bordercolor="#666666"
     borderopacity="1.0"
     inkscape:pageopacity="0.0"
     inkscape:pageshadow="2"
     inkscape:zoom="0.35"
     inkscape:cx="119.451"
     inkscape:cy="281.04514"
     inkscape:document-units="px"
     inkscape:current-layer="layer1"
     showgrid="false"
     inkscape:window-width="1280"
     inkscape:window-height="697"
     inkscape:window-x="-8"
     inkscape:window-y="1072"
     inkscape:window-maximized="1"
     showguides="false"
     fit-margin-top="0"
     fit-margin-left="0"
     fit-margin-right="0"
     fit-margin-bottom="0">
    <sodipodi:guide
       position="-511.22557,-968.7425"
       orientation="-0.70710678,0.70710678"
       id="guide4583" />
  </sodipodi:namedview>
  <metadata
     id="metadata7">
    <rdf:RDF>
      <cc:Work
         rdf:about="">
        <dc:format>image/svg+xml</dc:format>
        <dc:type
           rdf:resource="http://purl.org/dc/dcmitype/StillImage" />
        <dc:title></dc:title>
      </cc:Work>
    </rdf:RDF>
  </metadata>
  <g
     inkscape:label="Layer 1"
     inkscape:groupmode="layer"
     id="layer1"
     transform="translate(-38.725558,-34.959363)">
    <g
       transform="matrix(0.18680578,0.98239687,-0.98239687,0.18680578,1344.1625,990.44212)"
       id="g4486">
      <path
         style="fill:#f7e3b5;fill-opacity:1;fill-rule:evenodd;stroke:none;stroke-width:1px;stroke-linecap:butt;stroke-linejoin:miter;stroke-opacity:1"
         d="m -1076.2426,555.86272 c 0.2414,-16.94234 1.0559,-19.48758 9.4044,-46.86704 15.5399,-26.41544 140.01788,11.92745 210.02686,17.89118 11.66242,229.51474 -69.97975,84.29425 -150.17886,96.68931 -36.9577,-16.40513 -68.7743,-35.09519 -69.2524,-67.71345 z"
         id="path4488"
         inkscape:connector-curvature="0"
         sodipodi:nodetypes="ccccc" />
      <path
         style="fill:#e3e3f7;fill-opacity:1;fill-rule:evenodd;stroke:none;stroke-width:1px;stroke-linecap:butt;stroke-linejoin:miter;stroke-opacity:1"
         d="m -1076.6371,549.68174 c -14.1901,187.74374 -19.5112,373.51656 -15.2347,557.15656 1.818,35.4121 208.47641,38.0318 213.28649,10.882 31.42636,-181.32783 27.18279,-380.99316 23.41223,-567.38977 12.36846,62.50468 -143.68653,67.34345 -151.79392,57.08275 -43.1334,-2.27818 -54.7962,-16.29287 -69.6701,-57.73158 z"
         id="path4490"
         inkscape:connector-curvature="0"
         sodipodi:nodetypes="ccccccc" />
      <path
         style="fill:#55cc66;fill-opacity:1;fill-rule:evenodd;stroke:none;stroke-width:1px;stroke-linecap:butt;stroke-linejoin:miter;stroke-opacity:1"
         d="m -1063.7765,534.16286 c -6.6145,-28.41123 5.3591,-35.25987 8.9244,-55.41794 8.8548,-6.44003 11.1986,0.14181 12.917,7.97477 6.6687,-17.91432 21.0944,-17.00571 21.0944,-17.00571 13.0244,4.80807 19.879,-5.68849 21.54523,8.64152 4.34211,-16.61654 4.35956,-17.84423 22.15056,-16.14952 8.6264,-0.32798 17.20238,-4.53257 25.91401,1.69362 17.62591,5.14261 17.14552,1.51952 32.11506,-3.96336 8.16235,2.39719 13.39352,2.23206 17.48848,18.18724 12.40712,-9.33272 25.89915,-8.90122 39.74846,-5.25427 -9.02637,4.72572 1.76494,11.77413 -3.32592,28.30638 6.4049,3.85109 7.80888,10.74275 9.93242,20.30232 l -4.44612,18.63799 c -6.36855,10.15884 -22.02584,17.84069 -50.14765,22.19866 -21.85547,8.17737 -133.09483,38.41811 -153.91033,-28.1517 z"
         id="path4492"
         inkscape:connector-curvature="0"
         sodipodi:nodetypes="ccccccccccccccc" />
      <path
         style="fill:#d62246;fill-opacity:1;fill-rule:evenodd;stroke:none;stroke-width:1px;stroke-linecap:butt;stroke-linejoin:miter;stroke-opacity:1"
         d="m -911.31177,563.02935 c -57.55869,48.30222 -129.60373,9.77401 -140.22953,-8.11244 14.2735,-24.06462 29.2952,-66.92325 118.42031,-66.76764 56.49517,4.32801 61.52601,34.43266 68.80165,57.04221 -7.75781,15.22443 -20.48226,17.87789 -46.99243,17.83787 z"
         id="path4494"
         inkscape:connector-curvature="0"
         sodipodi:nodetypes="ccccc" />
      <path
         style="fill:#bcd422;fill-opacity:1;fill-rule:evenodd;stroke:none;stroke-width:1px;stroke-linecap:butt;stroke-linejoin:miter;stroke-opacity:1"
         d="m -1021.1391,576.88666 c -4.9577,-7.62608 -4.6543,-14.50054 0.5442,-20.67574 -1.7437,4.35897 22.12956,9.67092 24.51742,5.88607 3.92596,-6.22307 19.98825,-16.51531 19.98825,-16.51531 17.21457,0.72554 26.70703,6.95414 36.02082,13.89383 -4.5625,-6.39905 13.39927,-9.93374 29.92541,-11.42606 7.12117,-13.21516 23.57036,5.52803 21.49187,13.8745 -7.02471,1.53579 -14.04942,3.04089 -21.07413,3.15757 -35.36639,30.59194 -76.0474,29.06789 -111.41384,11.80514 z"
         id="path4496"
         inkscape:connector-curvature="0"
         sodipodi:nodetypes="ccscccccc" />
      <path
         style="fill:#c6c6e0;fill-opacity:1;fill-rule:evenodd;stroke:none;stroke-width:1px;stroke-linecap:butt;stroke-linejoin:miter;stroke-opacity:1"
         d="m -1007.7151,607.35617 c -11.8795,173.40863 -24.5942,346.98568 -35.8,520.22593 12.8049,-153.79834 26.5814,-347.84033 37.7808,-519.29928 -1.0157,-0.94992 -1.1846,-0.92587 -1.9808,-0.92665 z"
         id="path4499"
         inkscape:connector-curvature="0"
         sodipodi:nodetypes="cccc" />
    </g>
  </g>
</svg>
